<?xml version="1.0" encoding="UTF-8" standalone="no"?>
<!-- Generator: Adobe Illustrator 24.0.1, SVG Export Plug-In . SVG Version: 6.00 Build 0)  -->

<svg
   version="1.1"
   id="Layer_1"
   x="0px"
   y="0px"
   viewBox="0 0 212.08204 211.90143"
   xml:space="preserve"
   sodipodi:docname="logo_face.svg"
   width="212.08205"
   height="211.90144"
   inkscape:version="1.4.2 (ebf0e940, 2025-05-08)"
   xmlns:inkscape="http://www.inkscape.org/namespaces/inkscape"
   xmlns:sodipodi="http://sodipodi.sourceforge.net/DTD/sodipodi-0.dtd"
   xmlns="http://www.w3.org/2000/svg"
   xmlns:svg="http://www.w3.org/2000/svg"><defs
   id="defs44" /><sodipodi:namedview
   id="namedview44"
   pagecolor="#ffffff"
   bordercolor="#000000"
   borderopacity="0.25"
   inkscape:showpageshadow="2"
   inkscape:pageopacity="0.0"
   inkscape:pagecheckerboard="0"
   inkscape:deskcolor="#d1d1d1"
   inkscape:zoom="0.9882526"
   inkscape:cx="107.76597"
   inkscape:cy="105.23625"
   inkscape:window-width="1920"
   inkscape:window-height="1027"
   inkscape:window-x="0"
   inkscape:window-y="25"
   inkscape:window-maximized="0"
   inkscape:current-layer="Layer_1"
   inkscape:clip-to-page="true" />
<style
   type="text/css"
   id="style1">
	.st0{fill-rule:evenodd;clip-rule:evenodd;}
</style>
<g
   id="g44"
   transform="translate(-314.90319,-191.67856)">
	<g
   id="g43">
		<g
   id="g12">
			<path
   d="m 432.45,339.21 c 0.21,-0.34 0.05,-1.01 -0.12,-1.45 -0.06,-0.17 -0.64,-0.15 -0.98,-0.2 -0.55,-0.07 -1.1,-0.09 -1.64,-0.17 -0.98,-0.14 -1.95,-0.45 -2.93,-0.45 -3.66,0.01 -7.33,0.04 -10.99,0.21 -2.13,0.1 -4.25,0.43 -6.36,0.75 -0.8,0.12 -1.68,0.31 -1.95,1.38 2.3,1.27 1.9,1.65 1.03,3.16 -0.05,0.08 -0.09,0.16 -0.12,0.25 -0.65,1.5 0.13,2.59 1.72,2.4 0.12,-0.01 0.25,-0.04 0.37,-0.06 2.99,-0.48 5.96,-1.09 8.97,-1.42 3.52,-0.39 7.05,-0.43 10.54,0.47 1.66,0.43 3.35,0.68 5.03,1.01 0.06,-0.09 -1.33,-2.27 -2.15,-3.22 -0.74,-0.84 -1.13,-1.54 -0.42,-2.66 z"
   id="path1" />
			<path
   d="m 387.34,299.41 c -0.22,0.64 -0.41,1.3 -0.55,1.96 -0.25,1.2 -0.32,2.41 0.21,3.56 0.57,1.24 2.08,1.4 2.84,0.27 0.28,-0.41 0.45,-0.97 0.47,-1.46 0.1,-2.23 -1.14,-3.98 -2.23,-6.04 -0.31,0.71 -0.57,1.2 -0.74,1.71 z"
   id="path2" />
			<path
   d="m 460.18,303.01 c 0.54,-2.59 -0.23,-4.94 -1.39,-7.21 -0.03,-0.06 -0.15,-0.08 -0.3,-0.15 -0.21,0.6 -0.47,1.15 -0.59,1.74 -0.37,1.77 -0.74,3.55 -0.99,5.34 -0.13,0.97 0.72,1.21 1.46,1.33 0.91,0.15 1.65,-0.3 1.81,-1.05 z"
   id="path3" />
			<path
   d="m 456.1,268.44 c 0.87,0.08 1.33,-0.32 1.55,-1.57 0.42,-2.43 -0.39,-4.58 -1.68,-6.8 -1.22,2.15 -1.57,4.28 -1.48,6.5 0.04,1 0.78,1.8 1.61,1.87 z"
   id="path4" />
			<path
   d="m 396.51,264.41 c 0.16,1.49 1.39,1.95 2.54,0.98 0.33,-0.28 0.67,-0.73 0.72,-1.13 0.22,-2.04 -0.11,-3.98 -1.33,-5.89 -1.56,1.88 -2.16,3.85 -1.93,6.04 z"
   id="path5" />
			<path
   d="m 402.38,346.49 c -0.15,1.05 0.07,2.18 0.27,3.25 0.13,0.69 0.85,0.76 1.36,0.55 0.41,-0.17 0.9,-0.6 1,-1.01 0.58,-2.45 -0.38,-4.64 -1.46,-6.85 -0.4,1.35 -0.96,2.68 -1.17,4.06 z"
   id="path6" />
			<path
   d="m 526.41,286.93 c -2.79,-28.62 -15.48,-52.5 -37.74,-70.98 -22.12,-18.36 -48.62,-26.38 -78.77,-23.8 -26.74,2.28 -52.41,15.9 -70.43,37.38 -18.15,21.64 -26.71,49.46 -24.11,78.33 2.39,26.45 14.95,50.71 35.37,68.29 4.97,4.28 10.34,8.08 16.03,11.4 1.28,0.78 2.57,1.54 3.88,2.27 0.03,-0.02 0.07,-0.04 0.1,-0.06 1.34,0.71 2.69,1.39 4.06,2.04 0,0.07 0.01,0.13 0.01,0.2 6.54,3.25 13.46,5.84 20.69,7.68 0.31,0 0.62,0 0.93,0 10,2.56 20.49,3.9 31.23,3.9 0.29,0 0.59,0 0.88,0 h 0.01 c 25.53,-0.57 51.43,-13.32 71.05,-34.99 20.83,-22.98 29.85,-50.46 26.81,-81.66 z m -49.31,-7.84 c 1.16,-0.43 2.71,0.22 3.53,1.48 1.07,1.65 0.84,3.46 0.55,5.33 -0.54,-0.84 -0.97,-1.63 -1.52,-2.32 -0.66,-0.84 -1.16,-0.79 -1.93,-0.07 -2.81,2.63 -4.74,5.81 -5.6,9.55 -0.22,0.95 0,2.12 0.35,3.07 0.71,1.92 0.78,3.76 -0.14,5.57 -0.93,1.83 -0.83,3.84 -1.22,5.77 -0.04,0.2 0.11,0.58 0.25,0.63 0.26,0.08 0.68,0.08 0.86,-0.08 2.39,-2.08 4.61,-4.28 4.8,-7.72 0.11,-1.89 0.14,-3.74 -0.92,-5.49 -0.67,-1.12 0.2,-4.31 1.18,-5.11 0.67,-0.55 1.72,-0.17 1.92,0.82 0.41,1.99 1,3.97 0.63,6.05 -0.33,1.86 -0.59,3.72 -0.89,5.59 -0.31,1.96 -1.14,3.7 -2.54,5.06 -1.5,1.46 -2.16,3.15 -2.18,5.21 -0.02,1.65 -0.91,2.94 -2,4.07 -0.8,0.82 -1.88,0.89 -2.95,0.79 -0.59,-0.06 -0.68,-0.51 -0.67,-1.03 0.09,-3.07 0.15,-6.15 0.24,-9.22 0.12,-4.22 0.2,-8.45 0.4,-12.66 0.1,-2.03 0.37,-4.07 0.72,-6.07 0.15,-0.84 0.66,-1.65 1.11,-2.41 0.89,-1.49 1.86,-2.93 2.8,-4.39 0.79,-1.19 1.92,-1.94 3.22,-2.42 z M 370.89,232.14 c -0.02,-2.64 0.27,-5.15 1.39,-7.59 1.28,-2.8 3.35,-4.77 6.03,-6.08 1.9,-0.92 3.94,-1.56 6.02,-2.37 0,-1.24 -0.02,-2.7 0.01,-4.16 0.03,-1.38 0.14,-1.48 1.52,-1.48 9.85,-0.01 19.7,-0.02 29.55,-0.03 11.87,-0.01 23.74,-0.02 35.61,-0.03 1.37,0 2.73,-0.06 4.1,-0.03 1.28,0.03 1.38,0.15 1.4,1.41 0.02,1.49 0,2.98 0,4.48 1.5,0.3 3,0.51 4.45,0.91 7.34,2.08 10.64,8.71 10.17,15.2 -0.2,2.8 -0.74,5.5 -2.44,7.78 -2.78,3.72 -6.32,6.39 -11.12,6.64 -5.21,0.27 -10.43,0.3 -15.64,0.37 -4.47,0.06 -8.95,0.03 -13.43,0.01 -0.71,0 -1.43,-0.07 -2.13,-0.21 -1.84,-0.37 -3.11,-1.72 -3.22,-3.71 -0.16,-2.75 -0.16,-5.52 -0.16,-8.28 -0.01,-3.92 0.02,-7.83 0.07,-11.75 0.01,-1.21 0.06,-2.42 0.22,-3.61 0.22,-1.67 1.39,-2.53 2.93,-2.81 1.34,-0.24 2.71,-0.39 4.07,-0.4 7.12,-0.04 14.23,-0.03 21.35,-0.04 0.58,0 1.17,0 1.82,0 0,-0.94 0,-1.79 0,-2.68 -22,0 -44.01,0 -66.07,0 0,0.96 0,1.76 0,2.7 0.42,0 0.77,0 1.13,0 6.96,0 13.92,-0.02 20.88,0.03 2.14,0.01 4.3,0.06 6.4,0.37 2.18,0.33 3.24,1.82 3.22,4.01 -0.05,5 -0.14,10.01 -0.17,15.01 -0.01,1.77 0.16,3.54 0.13,5.31 -0.01,1.17 -0.11,2.36 -0.38,3.5 -0.27,1.17 -1.18,1.91 -2.34,2.15 -1.06,0.22 -2.15,0.39 -3.22,0.39 -8.08,-0.01 -16.16,-0.11 -24.24,-0.09 -2.71,0.01 -5.38,-0.02 -7.96,-1.01 -4.76,-1.82 -9.9,-7.15 -9.95,-13.91 z m 87.8,140.51 c -2.48,6.28 -4.4,12.29 -8.61,17.59 -0.73,0.92 -1.68,2.37 -2.52,3.19 -0.13,0.13 -0.88,1.36 -1.72,2.7 -7.98,2.03 -16.22,3.09 -24.52,3.09 -0.08,0 -0.15,0 -0.23,0 v 0 c -0.01,0 -0.02,0 -0.03,0 -4.7,0 -9.36,-0.33 -13.95,-0.97 -0.72,-1.59 -1.4,-3.98 -1.73,-4.53 -1.56,-2.53 -2.1,-6.93 -2.85,-10.07 1.81,1.16 3.4,2.14 4.96,3.18 2.91,1.95 6.06,3.19 9.59,3.39 1.7,0.1 3.54,-0.69 4.08,-1.98 0.73,-1.74 0.94,-3.54 -0.49,-5.04 -2.06,-2.18 -3.72,-4.55 -4.28,-7.56 -0.02,-0.08 -0.02,-0.16 -0.04,-0.31 3.11,0.44 6.21,0.43 9.06,-0.86 0.67,-0.3 1.32,-0.62 1.97,-0.96 0.16,-0.08 0.31,-0.17 0.47,-0.25 1.56,-0.82 3.08,-1.7 4.59,-2.55 l 0.01,-0.01 c 0,0 15.69,-9.94 19.87,-14.71 2.44,-3.11 4.87,-6.2 7.33,-9.32 0,1.49 0,2.77 0,4.05 0.01,5.94 -0.02,11.87 0.04,17.81 -0.01,1.48 -0.47,2.79 -1,4.12 z m 4.33,-51.11 c -0.17,2.38 -0.48,4.77 -0.47,7.16 0.02,6.91 -2.97,12.29 -7.99,16.82 -2.48,2.24 -5.08,4.2 -8,5.85 -1.63,0.92 -2.91,2.48 -4.32,3.78 -1.57,1.45 -3.05,3 -4.68,4.39 -1.72,1.47 -3.74,1.94 -6.05,1.86 -5.37,-0.2 -10.74,-0.14 -16.12,-0.24 -2.51,-0.05 -5.03,-0.12 -7.53,-0.41 -0.9,-0.1 -1.84,-0.71 -2.55,-1.33 -2.06,-1.8 -3.99,-3.74 -6.01,-5.58 -0.96,-0.87 -2.13,-1.53 -2.98,-2.49 -0.9,-1.01 -1.52,-2.26 -2.27,-3.41 0.1,-0.11 0.21,-0.23 0.31,-0.34 0.6,0.24 1.92,0.66 1.99,0.62 -0.69,-1.09 -1.21,-2.35 -2.1,-3.25 -2.47,-2.5 -3.31,-5.61 -3.98,-8.91 -0.7,-3.43 -0.25,-6.78 0.16,-10.16 0.34,-2.77 0.66,-5.54 1,-8.31 0.11,-0.89 0.19,-1.8 0.42,-2.66 0.1,-0.35 0.14,-0.69 0.16,-1.03 0,-0.06 0.01,-0.12 0.01,-0.18 0.01,-0.32 -0.02,-0.62 -0.07,-0.92 -0.01,-0.06 -0.02,-0.12 -0.04,-0.17 -0.07,-0.3 -0.15,-0.6 -0.28,-0.89 -0.01,-0.01 -0.01,-0.03 -0.02,-0.04 -0.12,-0.28 -0.28,-0.56 -0.44,-0.83 -0.03,-0.05 -0.06,-0.09 -0.09,-0.14 -0.17,-0.26 -0.37,-0.52 -0.58,-0.78 -0.06,-0.07 -0.12,-0.14 -0.18,-0.21 -0.73,-0.85 -1.62,-1.66 -2.56,-2.49 -0.84,-0.73 -1.76,-1.35 -2.67,-1.99 -0.05,-0.04 -0.1,-0.08 -0.15,-0.12 -0.09,-0.07 -0.17,-0.13 -0.25,-0.2 -0.13,-0.12 -0.26,-0.24 -0.38,-0.36 -0.07,-0.07 -0.14,-0.15 -0.21,-0.23 -0.12,-0.14 -0.22,-0.3 -0.32,-0.46 -0.05,-0.08 -0.1,-0.15 -0.14,-0.22 -0.13,-0.24 -0.25,-0.5 -0.34,-0.78 -0.85,-2.52 -1.71,-5.03 -2.51,-7.55 -0.59,-1.87 0.2,-3.43 1.34,-4.79 0.21,-0.24 0.4,-0.45 0.6,-0.64 0.02,-0.02 0.05,-0.04 0.07,-0.06 0.17,-0.16 0.35,-0.3 0.52,-0.42 0.01,-0.01 0.03,-0.02 0.04,-0.02 0.18,-0.12 0.37,-0.22 0.56,-0.29 0,0 0.01,0 0.01,0 0.2,-0.07 0.41,-0.12 0.63,-0.14 0.46,-0.17 2.08,-0.58 5.59,0.04 0,0 0,-0.01 0.01,-0.01 1.79,0.27 5.42,0.64 5.45,0.55 -1.51,-1.04 -3.51,-1.29 -4.95,-2.95 1.05,-0.73 2.03,-1.41 3.2,-2.22 0.5,2.8 2.29,3.16 4.42,3.13 2.2,-0.03 3.73,-0.97 4.52,-2.94 0.96,0.7 1.87,1.37 2.93,2.16 -0.09,0.13 -0.25,0.49 -0.52,0.72 -1.84,1.54 -3.8,2.84 -6.15,3.53 -1.43,0.43 -2.79,1.12 -4.23,1.71 0.59,1.09 1.37,1.37 2.3,1.33 3.07,-0.15 5.96,-1.01 8.79,-2.14 0.65,-0.26 1.29,-0.55 2.09,-0.88 -0.14,1.34 -0.24,2.54 -0.41,3.72 -0.23,1.62 -0.33,3.3 -0.82,4.85 -0.64,2.02 -1.47,4 -2.44,5.88 -1.12,2.17 -2.35,4.31 -3.78,6.28 -2.29,3.18 -3.64,6.72 -4.66,10.44 -0.84,3.06 -1.49,6.13 -1.58,9.31 -0.02,0.57 0.03,3.8 0.34,4.78 0.31,0.98 3.01,5.72 3.41,5.72 0.39,0 0.46,-1.3 0.82,-1.93 1.23,-2.15 2.66,-4.19 4.03,-6.26 0.66,-0.99 1.73,-1.23 2.82,-1.44 5.08,-0.95 10.23,-1.25 15.38,-1.3 3.35,-0.03 6.71,-0.03 10.04,0.23 2.33,0.18 4.63,0.79 6.94,1.25 1.55,0.31 2.66,1.25 3.52,2.55 2.21,3.35 4.11,6.86 5.33,10.71 0.04,0.11 0.11,0.22 0.27,0.54 0.92,-2.45 0.96,-4.76 0.34,-7.1 -0.32,-1.23 -0.72,-2.44 -0.97,-3.68 -0.28,-1.38 -0.97,-2.43 -2.22,-3.04 -2.95,-1.44 -5.9,-2.88 -8.89,-4.23 -2.06,-0.93 -4.19,-1.69 -6.28,-2.56 -1.83,-0.76 -2.87,-0.58 -4.31,0.81 -0.09,0.09 -0.18,0.17 -0.26,0.27 -2.17,2.43 -4.52,2.45 -7.39,-0.18 0.36,-0.69 0.73,-1.39 1.12,-2.14 0.25,0.09 0.48,0.17 0.7,0.25 1.59,0.64 3.1,0.55 4.36,-0.52 0.1,-0.09 0.2,-0.16 0.3,-0.26 0.35,-0.36 0.67,-0.75 1,-1.13 0.64,-0.75 1.25,-1.53 1.77,-2.35 0.84,-1.34 1.83,-2.49 3.03,-3.4 0.09,0.01 0.18,0.02 0.28,0.04 2.85,0.54 6.45,-1.95 7.08,-4.98 4.95,5.91 9.08,12.01 10.81,19.47 0.35,-3.74 0.56,-7.44 -1.14,-11 -2.92,-6.15 -6.24,-12.04 -10.39,-17.45 -0.92,-1.19 -1.97,-1.55 -3.25,-1.08 -0.97,0.36 -1.08,0.91 -0.32,1.63 0.09,0.08 0.19,0.18 0.3,0.22 1.64,0.55 2.11,5.28 2.14,6.24 0.04,1.14 -0.76,1.96 -1.73,1.53 -2.75,-1.21 -4.96,0.02 -7.26,1.26 -1.19,0.64 -2.46,1.15 -3.75,1.57 -0.48,0.16 -1.28,0.11 -1.63,-0.2 -0.91,-0.8 -1.79,-1.62 -2.65,-2.46 v 0 c 0,0 -1.79,-1.36 -5.7,-1.4 -0.02,0 -0.04,-0.01 -0.07,-0.01 -1.11,0 -2.13,0.03 -3.13,-0.03 -0.24,-0.01 -0.64,-0.33 -0.65,-0.52 -0.07,-1.51 -0.15,-3.03 -0.04,-4.53 0.07,-0.88 1.35,-1.79 2.43,-2.01 5.22,1.51 5.01,-1.12 5.05,-4.81 -0.02,-3.52 -0.02,-7.04 -0.03,-10.56 h -0.01 c 0,0 0,-0.28 0.01,-0.71 0,-0.15 0,-0.3 0,-0.46 0,-0.03 0,-0.06 0,-0.09 0,-0.08 0.01,-0.14 0.02,-0.21 0.03,-1.24 0.07,-2.99 0.14,-4.17 0.11,-2 1.28,-6.96 1.28,-6.96 h 0.01 c 0,0 0,0 0,0 0.15,-0.73 0.31,-1.45 0.46,-2.17 0.65,-3.07 0.19,-6.04 -0.93,-8.92 -0.26,-0.68 -0.79,-1.26 -1.2,-1.88 -0.09,0.04 -0.28,1.11 -0.15,1.56 0.9,3.09 0.13,6.08 -0.54,9.06 -0.26,1.14 -0.61,2.26 -1.01,3.36 -0.1,0.28 -0.56,0.6 -0.84,0.59 -0.28,-0.01 -5.61,-1.97 -6.73,-2.34 -3.05,-0.99 -6.08,-2.04 -9.12,-3.07 -1.2,-0.41 -2.4,-0.82 -3.6,-1.22 -1.24,-0.41 -2.47,-0.28 -3.62,0.25 -1.5,0.69 -2.96,1.48 -4.55,2.29 0.28,-0.96 0.54,-1.95 0.85,-2.93 0.18,-0.59 0.45,-1.16 0.63,-1.74 0.25,-0.8 0.58,-1.46 1.53,-1.65 0.21,-0.04 0.49,-0.64 0.42,-0.9 -0.17,-0.61 -0.56,-1.16 -0.82,-1.75 -0.66,-1.52 -1.3,-3.05 -1.94,-4.58 -0.32,-0.76 0.13,-1.25 0.72,-1.49 1.83,-0.74 3.64,-1.65 5.54,-2.02 2.08,-0.41 4.16,-0.77 6.25,-1.11 0.69,-0.11 1.38,-0.2 2.08,-0.3 1.19,-0.18 2.38,-0.36 3.57,-0.51 0.13,-0.02 0.26,-0.02 0.39,-0.04 0.27,-0.03 0.54,-0.08 0.81,-0.11 2.86,-0.35 5.76,-0.36 8.65,-0.42 0.86,-0.02 1.71,-0.03 2.57,-0.04 1.6,-0.03 3.2,-0.06 4.79,-0.08 2.89,-0.04 5.78,-0.06 8.67,-0.02 4.28,0.05 8.57,0.22 12.84,0.54 5.38,0.4 10.68,1.36 15.68,3.51 1.05,0.45 2.06,0.99 3.05,1.57 1.9,1.1 2.8,2.84 2.91,4.99 0.36,7.08 1.89,13.99 2.96,20.96 0.09,0.56 0.17,1.13 0.25,1.69 0.02,0.14 0.03,0.27 0.05,0.41 0.06,0.43 0.11,0.85 0.16,1.28 0.03,0.22 0.04,0.43 0.07,0.65 0.04,0.35 0.08,0.69 0.11,1.04 0.02,0.23 0.03,0.46 0.05,0.69 0.02,0.33 0.05,0.67 0.07,1 0.01,0.24 0.01,0.47 0.02,0.71 0.01,0.33 0.03,0.66 0.03,0.99 0,0.25 -0.01,0.49 -0.02,0.74 -0.01,0.32 -0.01,0.64 -0.02,0.96 -0.01,0.25 -0.04,0.5 -0.06,0.75 -0.02,0.32 -0.04,0.63 -0.07,0.95 -0.03,0.25 -0.07,0.5 -0.11,0.75 -0.04,0.3 -0.07,0.61 -0.13,0.91 0,0.01 0,0.01 -0.01,0.02 0,0.02 0,0.03 -0.01,0.05 -0.16,0.92 -0.5,1.81 -1.11,2.53 -0.01,0.01 -0.02,0.03 -0.03,0.04 -0.01,0.02 -0.02,0.03 -0.03,0.05 -3.79,5.46 -5.69,11.7 -7.51,17.97 -0.03,0.11 -0.03,0.24 -0.04,0.34 1.32,-1.28 2.63,-2.57 3.94,-3.85 0,0 0,0 0,0 0.09,0.04 0.1,0.05 0.19,0.09 -0.11,1.99 -0.27,3.99 -0.41,5.99 z m -76.33,-37.18 c 1.5,-1.26 2.91,-2.59 4.47,-3.7 0.71,-0.5 1.7,-0.71 2.59,-0.81 1.12,-0.14 2.26,-0.03 3.39,-0.03 0,0.08 -2.69,1.28 -3.95,1.96 -1.33,0.71 -2.58,1.57 -3.83,2.43 -0.88,0.59 -1.75,0.57 -2.67,0.15 z m 18.59,27.48 c -1.16,4.77 -1.81,9.68 -4.02,14.13 -0.69,1.37 -1.65,2.61 -2.48,3.91 -0.21,0.33 -0.42,0.68 -0.63,1.02 -0.14,-0.11 -0.46,-0.23 -0.34,-0.97 1.07,-6.62 3.95,-12.47 7.47,-18.09 z m 59.29,77.52 c 2.75,-9.08 4.82,-18.23 4.24,-27.96 0.62,0.72 1.27,1.41 1.85,2.15 0.38,0.48 0.71,0.98 1.02,1.49 l 9.88,5.11 c 0,0 0,0 0,0 0.19,0.1 0.37,0.19 0.55,0.29 l 0.99,0.51 v 0.01 c 1.74,0.9 3.47,1.81 5.19,2.73 -7.18,6.32 -15.17,11.6 -23.72,15.67 z"
   id="path7" />
			<path
   d="m 443.16,219.38 c 0,0 0,0 0,0 -4.6,-0.01 -9.19,-0.01 -13.79,0 -1.73,0 -2.49,0.59 -2.7,2.27 -0.21,1.69 -0.32,3.4 -0.34,5.1 -0.05,3.57 -0.01,7.15 -0.02,10.72 0,1.36 -0.13,2.73 -0.04,4.09 0.12,1.92 0.91,2.63 2.87,2.62 9.04,-0.04 18.07,-0.09 27.11,-0.17 5.34,-0.04 11.27,-4.96 11.8,-10.05 0.27,-2.67 0.36,-5.28 -0.79,-7.74 -2.06,-4.37 -5.7,-6.58 -10.4,-6.8 -4.56,-0.2 -9.13,-0.04 -13.7,-0.04 z"
   id="path8" />
			<path
   d="m 409.71,244.15 c 1.05,0 2.11,-0.04 3.16,-0.16 1.84,-0.2 2.59,-1.02 2.62,-2.84 0.04,-2.27 -0.01,-4.53 0.01,-6.8 0.05,-4.01 0.16,-8.01 0.16,-12.02 0,-1.96 -0.84,-2.8 -2.79,-2.82 -4.6,-0.05 -9.19,-0.02 -13.79,-0.02 0,-0.04 0,-0.08 0,-0.12 -4.29,0 -8.57,-0.01 -12.86,0.01 -0.83,0 -1.69,0.01 -2.5,0.2 -3.84,0.87 -7,2.67 -8.84,6.39 -1.41,2.87 -1.42,5.78 -0.6,8.76 1.45,5.3 6.38,9.26 11.56,9.29 7.97,0.06 15.92,0.11 23.87,0.13 z"
   id="path9" />
			<path
   d="m 452.01,365.46 c -0.1,-0.02 -0.2,-0.04 -0.3,-0.06 -0.52,1.29 -1.13,2.55 -1.52,3.88 -0.31,1.05 -0.49,2.19 -0.45,3.27 0.04,1.27 0.91,1.94 1.97,1.87 1.11,-0.08 1.8,-0.78 1.61,-2.14 -0.32,-2.28 -0.86,-4.54 -1.31,-6.82 z"
   id="path10" />
			<path
   d="m 442.82,379.28 c -1.28,2.37 -1.73,4.94 -1.72,7.59 0,0.32 0.41,0.82 0.73,0.92 1.37,0.44 2.29,-0.07 2.56,-1.48 0.48,-2.53 -0.32,-4.85 -1.3,-7.15 -0.16,0.07 -0.25,0.08 -0.27,0.12 z"
   id="path11" />
			<path
   d="m 462.08,289.08 c -0.99,-0.54 -1.92,-1.05 -2.85,-1.56 0,0 -0.01,0 -0.01,0 -0.03,-0.01 -0.05,-0.03 -0.07,-0.04 -0.19,-0.11 -0.39,-0.21 -0.58,-0.32 0,0 0.01,-0.01 0.01,-0.01 -1.45,-0.98 -2.11,-2.49 -2.16,-2.6 -1.12,-1.65 -2.79,-2.1 -4.59,-2.51 -2.05,-0.47 -4.06,-1.14 -6.26,-1.78 1.77,-0.73 3.29,-1.39 4.84,-1.98 0.89,-0.34 1.82,-0.6 2.75,-0.82 0.94,-0.22 1.81,0.01 2.67,0.48 2.03,1.11 4.11,2.15 6.16,3.21 0.08,-0.05 0.16,-0.09 0.24,-0.14 -0.25,-0.8 -0.42,-1.64 -0.75,-2.4 -0.92,-2.12 -2.35,-3.87 -4.13,-5.31 -0.29,-0.24 -0.76,-0.26 -1.15,-0.38 -0.14,-0.04 -0.33,-0.01 -0.43,-0.09 -1.66,-1.49 -3.56,-1.77 -5.57,-1.46 -0.3,0.05 -0.62,0.11 -0.95,0.18 -4.03,0.94 -8.06,1.86 -12.06,2.89 -1.76,0.45 -3.45,1.16 -5.29,1.79 -1.7,0.41 -2.51,-0.36 -3.52,-0.48 -0.45,-0.06 -1.07,-0.31 -1.26,-0.66 -1.66,-3.09 -2.19,-6.42 -1.77,-9.89 0.15,-1.19 0.44,-2.36 0.67,-3.52 -1.18,-0.09 -2.21,0.66 -2.44,2.21 -0.29,1.92 -0.45,3.88 -0.47,5.82 -0.01,0.62 0.02,1.24 0.06,1.86 0.02,0.29 0.04,0.58 0.08,0.87 0.03,0.26 0.07,0.52 0.1,0.79 0.12,0.83 0.27,1.66 0.48,2.49 0,0 0,0 0,0 0.19,0.65 0.39,1.28 0.58,1.87 0.12,0.34 0.22,0.67 0.36,1.01 0,0 -0.01,0 -0.01,0 1.35,3.81 2.63,6.05 2.7,6.16 0,0 0,0 0,0.01 0.25,0.3 0.47,0.62 0.66,0.95 0.06,0.1 0.11,0.19 0.17,0.29 0.07,0.13 0.13,0.27 0.19,0.41 0.06,0.14 0.11,0.28 0.16,0.42 0.04,0.11 0.09,0.23 0.12,0.35 0.07,0.26 0.13,0.52 0.17,0.8 0.01,0.1 0.02,0.2 0.03,0.3 0.02,0.22 0.04,0.44 0.04,0.67 0,0.1 0,0.2 0,0.3 -0.01,0.33 -0.03,0.66 -0.08,1.01 0.58,-0.53 0.96,-0.92 1.38,-1.27 0,0 0,0 0,0 1.3,-1.07 2.25,-1.01 3.4,0.2 0,0 0.01,0.01 0.01,0.01 0,0 0,0 0,0 0.48,0.5 0.95,1.02 1.42,1.53 0.47,0.51 0.95,1.02 1.44,1.52 0.81,0.81 1.67,1.57 2.54,2.32 1.85,1.6 4.1,2.14 6.45,2.17 0.18,0 0.36,-0.02 0.54,-0.06 0.08,-0.02 0.17,-0.05 0.25,-0.08 0.1,-0.03 0.2,-0.05 0.3,-0.09 0.08,-0.03 0.16,-0.07 0.24,-0.11 0.1,-0.04 0.2,-0.08 0.29,-0.14 0.06,-0.03 0.12,-0.07 0.19,-0.11 0.1,-0.06 0.21,-0.12 0.31,-0.18 0,0 0,0 0,0 0.66,-0.43 0.61,-1.05 -0.1,-1.36 -0.03,-0.01 -0.05,-0.03 -0.08,-0.04 -0.61,-0.25 -1.22,-0.49 -1.84,-0.73 -1,-0.39 -2.01,-0.77 -3,-1.18 -0.67,-0.27 -1.31,-0.62 -1.94,-1.03 1.97,0.02 3.91,0.01 5.86,-1.03 -1.75,-0.52 -3.36,-1.02 -4.98,-1.48 -1.46,-0.42 -2.8,-1.04 -3.76,-2.25 -0.23,-0.29 -0.38,-1 -0.22,-1.17 0.56,-0.56 1.28,-0.98 1.96,-1.41 0.04,-0.02 0.4,0.35 0.51,0.58 1.43,3.07 5.23,3.54 7.71,2.91 0.9,-0.23 1.5,-0.78 1.66,-1.78 0.15,-0.92 0.5,-1.03 1.28,-0.53 0.05,0.03 0.1,0.07 0.15,0.11 1.76,1.18 1.8,1.62 0.1,2.97 -0.74,0.59 -1.61,1.02 -2.42,1.52 0.76,0.23 2.03,0.12 3.19,-0.62 0.93,-0.59 1.67,-1.49 2.53,-2.29 1.18,0.6 2.48,1.24 3.76,1.91 1.32,0.72 2.62,0.46 4.03,0 z"
   id="path12" />
		</g>
		<g
   id="g21">
			
			
			
			
			
			
			
			
			
		</g>
		<g
   id="g38">
			
			
			
			
			
			<path
   id="path27"
   d="m 349.22086,401.42053 -0.041,0.0684 c 0.0645,0.007 0.1288,0.0164 0.19336,0.0234 z" />
			
			
			
			
			
			
			
			
			
			
			
		</g>
		<g
   id="g41">
			<g
   id="g39">
				
			</g>
			<g
   id="g40">
				
			</g>
		</g>
		<g
   id="g42">
			
		</g>
	</g>
	
	
</g>
</svg>
