<?xml version="1.0" encoding="UTF-8" standalone="no"?>
<!-- Generator: Adobe Illustrator 24.0.1, SVG Export Plug-In . SVG Version: 6.00 Build 0)  -->

<svg
   version="1.1"
   id="Layer_1"
   x="0px"
   y="0px"
   viewBox="0 0 553.87633 155.09277"
   xml:space="preserve"
   sodipodi:docname="logo_m_b.svg"
   width="553.87634"
   height="155.09277"
   inkscape:version="1.4.2 (ebf0e940, 2025-05-08)"
   xmlns:inkscape="http://www.inkscape.org/namespaces/inkscape"
   xmlns:sodipodi="http://sodipodi.sourceforge.net/DTD/sodipodi-0.dtd"
   xmlns="http://www.w3.org/2000/svg"
   xmlns:svg="http://www.w3.org/2000/svg"><defs
   id="defs45" /><sodipodi:namedview
   id="namedview45"
   pagecolor="#ffffff"
   bordercolor="#000000"
   borderopacity="0.25"
   inkscape:showpageshadow="2"
   inkscape:pageopacity="0.0"
   inkscape:pagecheckerboard="0"
   inkscape:deskcolor="#d1d1d1"
   inkscape:zoom="0.9882526"
   inkscape:cx="277.76299"
   inkscape:cy="76.903415"
   inkscape:window-width="1312"
   inkscape:window-height="1027"
   inkscape:window-x="342"
   inkscape:window-y="25"
   inkscape:window-maximized="0"
   inkscape:current-layer="Layer_1" />
<style
   type="text/css"
   id="style1">
	.st0{fill-rule:evenodd;clip-rule:evenodd;}
</style>
<g
   id="g45"
   transform="translate(-144.00363,-220.09723)">
	<g
   id="g12">
		<path
   d="m 230.03,328.06 c 0.16,-0.25 0.04,-0.74 -0.09,-1.06 -0.05,-0.12 -0.47,-0.11 -0.72,-0.14 -0.4,-0.05 -0.8,-0.07 -1.2,-0.13 -0.72,-0.11 -1.43,-0.33 -2.14,-0.33 -2.68,0.01 -5.37,0.03 -8.04,0.15 -1.56,0.07 -3.11,0.31 -4.66,0.55 -0.58,0.09 -1.23,0.23 -1.43,1.01 1.69,0.93 1.39,1.21 0.75,2.31 -0.03,0.06 -0.06,0.12 -0.09,0.18 -0.47,1.1 0.1,1.9 1.26,1.76 0.09,-0.01 0.18,-0.03 0.27,-0.04 2.19,-0.35 4.36,-0.8 6.56,-1.04 2.58,-0.29 5.16,-0.31 7.71,0.34 1.21,0.31 2.45,0.5 3.68,0.74 0.04,-0.06 -0.97,-1.66 -1.57,-2.35 -0.53,-0.62 -0.81,-1.13 -0.29,-1.95 z"
   id="path1" />
		<path
   d="m 197.02,298.94 c -0.16,0.47 -0.3,0.95 -0.4,1.43 -0.18,0.88 -0.23,1.76 0.15,2.6 0.41,0.9 1.52,1.02 2.08,0.2 0.2,-0.3 0.33,-0.71 0.34,-1.07 0.07,-1.63 -0.83,-2.91 -1.63,-4.42 -0.23,0.52 -0.41,0.88 -0.54,1.26 z"
   id="path2" />
		<path
   d="m 250.32,301.57 c 0.4,-1.9 -0.17,-3.61 -1.02,-5.27 -0.02,-0.05 -0.11,-0.06 -0.22,-0.11 -0.15,0.44 -0.34,0.84 -0.43,1.27 -0.27,1.3 -0.54,2.59 -0.72,3.9 -0.1,0.71 0.53,0.88 1.07,0.97 0.66,0.12 1.21,-0.21 1.32,-0.76 z"
   id="path3" />
		<path
   d="m 247.33,276.27 c 0.64,0.06 0.98,-0.23 1.14,-1.15 0.31,-1.78 -0.28,-3.35 -1.23,-4.98 -0.89,1.57 -1.15,3.13 -1.09,4.76 0.03,0.73 0.58,1.32 1.18,1.37 z"
   id="path4" />
		<path
   d="m 203.73,273.32 c 0.12,1.09 1.02,1.43 1.86,0.72 0.24,-0.2 0.49,-0.53 0.53,-0.83 0.16,-1.49 -0.08,-2.91 -0.97,-4.31 -1.15,1.38 -1.59,2.82 -1.42,4.42 z"
   id="path5" />
		<path
   d="m 208.03,333.38 c -0.11,0.77 0.05,1.6 0.2,2.38 0.1,0.51 0.62,0.56 1,0.4 0.3,-0.12 0.66,-0.44 0.73,-0.74 0.43,-1.79 -0.28,-3.4 -1.07,-5.02 -0.3,1 -0.71,1.97 -0.86,2.98 z"
   id="path6" />
		<path
   d="m 298.78,289.8 c -2.04,-20.94 -11.33,-38.42 -27.62,-51.94 -16.19,-13.44 -35.58,-19.3 -57.64,-17.42 -19.57,1.67 -38.35,11.64 -51.54,27.36 -13.28,15.84 -19.55,36.19 -17.64,57.32 1.75,19.36 10.94,37.11 25.88,49.98 3.64,3.13 7.57,5.91 11.73,8.35 0.93,0.57 1.88,1.13 2.84,1.66 0.02,-0.01 0.05,-0.03 0.07,-0.04 0.98,0.52 1.97,1.02 2.97,1.5 0,0.05 0.01,0.1 0.01,0.15 4.79,2.38 9.85,4.28 15.14,5.62 0.23,0 0.45,0 0.68,0 7.32,1.88 14.99,2.85 22.85,2.85 0.21,0 0.43,0 0.64,0 h 0.01 c 18.68,-0.42 37.63,-9.75 51.99,-25.6 15.26,-16.85 21.86,-36.96 19.63,-59.79 z m -36.08,-5.73 c 0.85,-0.31 1.98,0.16 2.58,1.09 0.78,1.21 0.61,2.53 0.4,3.9 -0.4,-0.61 -0.71,-1.19 -1.11,-1.7 -0.48,-0.61 -0.85,-0.58 -1.41,-0.05 -2.05,1.93 -3.46,4.25 -4.1,6.99 -0.16,0.7 0,1.55 0.26,2.25 0.52,1.4 0.57,2.75 -0.1,4.08 -0.68,1.34 -0.61,2.81 -0.89,4.22 -0.03,0.14 0.08,0.43 0.18,0.46 0.19,0.06 0.49,0.06 0.63,-0.06 1.75,-1.52 3.37,-3.13 3.52,-5.65 0.08,-1.38 0.1,-2.74 -0.67,-4.02 -0.49,-0.82 0.15,-3.15 0.87,-3.74 0.49,-0.4 1.26,-0.12 1.4,0.6 0.3,1.46 0.73,2.9 0.46,4.43 -0.24,1.36 -0.43,2.73 -0.65,4.09 -0.23,1.43 -0.83,2.71 -1.86,3.7 -1.1,1.07 -1.58,2.31 -1.59,3.81 -0.01,1.2 -0.66,2.15 -1.46,2.98 -0.58,0.6 -1.38,0.65 -2.16,0.58 -0.43,-0.04 -0.5,-0.37 -0.49,-0.75 0.06,-2.25 0.11,-4.5 0.18,-6.75 0.09,-3.09 0.14,-6.18 0.29,-9.27 0.07,-1.49 0.27,-2.98 0.53,-4.44 0.11,-0.62 0.48,-1.21 0.81,-1.76 0.65,-1.09 1.36,-2.14 2.05,-3.21 0.55,-0.88 1.38,-1.43 2.33,-1.78 z m -77.72,-34.36 c -0.01,-1.93 0.2,-3.77 1.02,-5.56 0.94,-2.05 2.45,-3.49 4.42,-4.45 1.39,-0.67 2.88,-1.14 4.4,-1.73 0,-0.91 -0.02,-1.98 0,-3.04 0.02,-1.01 0.1,-1.08 1.11,-1.08 7.21,-0.01 14.42,-0.02 21.63,-0.02 8.69,-0.01 17.37,-0.01 26.06,-0.02 1,0 2,-0.04 3,-0.02 0.94,0.02 1.01,0.11 1.02,1.03 0.01,1.09 0,2.18 0,3.28 1.1,0.22 2.2,0.37 3.25,0.67 5.37,1.52 7.79,6.38 7.45,11.12 -0.15,2.05 -0.54,4.02 -1.79,5.69 -2.04,2.72 -4.62,4.67 -8.13,4.86 -3.81,0.2 -7.63,0.22 -11.45,0.27 -3.27,0.04 -6.55,0.02 -9.82,0.01 -0.52,0 -1.05,-0.05 -1.56,-0.15 -1.35,-0.27 -2.28,-1.26 -2.36,-2.71 -0.11,-2.02 -0.12,-4.04 -0.12,-6.06 -0.01,-2.87 0.02,-5.73 0.05,-8.6 0.01,-0.88 0.05,-1.77 0.16,-2.64 0.16,-1.22 1.02,-1.85 2.15,-2.05 0.98,-0.17 1.98,-0.28 2.98,-0.29 5.21,-0.03 10.42,-0.02 15.62,-0.03 0.43,0 0.86,0 1.33,0 0,-0.69 0,-1.31 0,-1.96 -16.1,0 -32.21,0 -48.35,0 0,0.71 0,1.29 0,1.98 0.3,0 0.57,0 0.83,0 5.09,0 10.19,-0.01 15.28,0.02 1.56,0.01 3.14,0.04 4.68,0.27 1.6,0.24 2.37,1.33 2.36,2.93 -0.03,3.66 -0.1,7.32 -0.13,10.98 -0.01,1.3 0.12,2.59 0.1,3.89 -0.01,0.86 -0.08,1.73 -0.28,2.56 -0.2,0.86 -0.86,1.39 -1.72,1.57 -0.77,0.16 -1.57,0.29 -2.36,0.29 -5.91,-0.01 -11.82,-0.08 -17.74,-0.06 -1.99,0 -3.94,-0.01 -5.83,-0.74 -3.46,-1.37 -7.22,-5.26 -7.26,-10.21 z m 64.25,102.82 c -1.82,4.6 -3.22,8.99 -6.3,12.88 -0.54,0.68 -1.23,1.73 -1.85,2.33 -0.1,0.1 -0.65,1 -1.26,1.98 -5.84,1.48 -11.87,2.26 -17.95,2.26 -0.06,0 -0.11,0 -0.17,0 v 0 c -0.01,0 -0.02,0 -0.02,0 -3.44,0 -6.85,-0.24 -10.21,-0.71 -0.53,-1.16 -1.02,-2.91 -1.27,-3.31 -1.14,-1.85 -1.53,-5.07 -2.09,-7.37 1.32,0.85 2.49,1.56 3.63,2.33 2.13,1.43 4.44,2.33 7.02,2.48 1.24,0.07 2.59,-0.5 2.99,-1.45 0.54,-1.27 0.68,-2.59 -0.36,-3.69 -1.51,-1.59 -2.72,-3.33 -3.13,-5.53 -0.01,-0.06 -0.02,-0.12 -0.03,-0.23 2.28,0.32 4.55,0.31 6.63,-0.63 0.49,-0.22 0.97,-0.46 1.44,-0.7 0.12,-0.06 0.23,-0.12 0.34,-0.18 1.14,-0.6 2.25,-1.25 3.36,-1.87 l 0.01,-0.01 c 0,0 11.48,-7.28 14.54,-10.77 1.79,-2.27 3.57,-4.53 5.36,-6.82 0,1.09 0,2.03 0,2.97 0,4.34 -0.01,8.69 0.03,13.03 0.02,1.08 -0.32,2.04 -0.71,3.01 z m 3.17,-37.4 c -0.13,1.74 -0.35,3.49 -0.35,5.24 0.01,5.06 -2.17,8.99 -5.84,12.31 -1.81,1.64 -3.72,3.08 -5.85,4.28 -1.19,0.67 -2.13,1.81 -3.16,2.76 -1.15,1.06 -2.23,2.2 -3.42,3.21 -1.26,1.07 -2.74,1.42 -4.43,1.36 -3.93,-0.14 -7.86,-0.1 -11.79,-0.18 -1.84,-0.04 -3.68,-0.09 -5.51,-0.3 -0.66,-0.07 -1.35,-0.52 -1.87,-0.97 -1.51,-1.32 -2.92,-2.74 -4.4,-4.09 -0.7,-0.64 -1.56,-1.12 -2.18,-1.82 -0.66,-0.74 -1.12,-1.66 -1.66,-2.5 0.08,-0.08 0.15,-0.17 0.23,-0.25 0.44,0.18 1.41,0.48 1.46,0.46 -0.5,-0.8 -0.89,-1.72 -1.54,-2.38 -1.81,-1.83 -2.42,-4.1 -2.91,-6.52 -0.51,-2.51 -0.18,-4.96 0.12,-7.44 0.25,-2.03 0.48,-4.05 0.73,-6.08 0.08,-0.65 0.14,-1.31 0.31,-1.94 0.07,-0.26 0.1,-0.51 0.12,-0.75 0,-0.04 0.01,-0.09 0.01,-0.13 0.01,-0.23 -0.01,-0.45 -0.05,-0.67 -0.01,-0.04 -0.02,-0.08 -0.03,-0.13 -0.05,-0.22 -0.11,-0.44 -0.2,-0.65 0,-0.01 -0.01,-0.02 -0.01,-0.03 -0.09,-0.21 -0.2,-0.41 -0.33,-0.61 -0.02,-0.03 -0.04,-0.07 -0.06,-0.1 -0.13,-0.19 -0.27,-0.38 -0.42,-0.57 -0.04,-0.05 -0.09,-0.1 -0.13,-0.15 -0.53,-0.62 -1.18,-1.22 -1.87,-1.82 -0.61,-0.54 -1.29,-0.99 -1.95,-1.46 -0.04,-0.03 -0.07,-0.06 -0.11,-0.09 -0.06,-0.05 -0.12,-0.1 -0.18,-0.15 -0.1,-0.08 -0.19,-0.17 -0.28,-0.27 -0.05,-0.05 -0.1,-0.11 -0.15,-0.17 -0.09,-0.1 -0.16,-0.22 -0.23,-0.33 -0.03,-0.05 -0.07,-0.11 -0.1,-0.16 -0.1,-0.18 -0.18,-0.36 -0.25,-0.57 -0.62,-1.84 -1.25,-3.68 -1.84,-5.53 -0.44,-1.36 0.15,-2.51 0.98,-3.5 0.15,-0.18 0.29,-0.33 0.44,-0.47 0.02,-0.02 0.04,-0.03 0.05,-0.05 0.13,-0.12 0.25,-0.22 0.38,-0.31 0.01,-0.01 0.02,-0.01 0.03,-0.02 0.13,-0.09 0.27,-0.16 0.41,-0.21 0,0 0.01,0 0.01,0 0.15,-0.05 0.3,-0.09 0.46,-0.11 0.34,-0.13 1.52,-0.42 4.09,0.03 0,0 0,-0.01 0,-0.01 1.31,0.2 3.97,0.47 3.99,0.4 -1.11,-0.76 -2.57,-0.95 -3.62,-2.16 0.77,-0.54 1.49,-1.03 2.34,-1.63 0.37,2.05 1.68,2.31 3.23,2.29 1.61,-0.02 2.73,-0.71 3.31,-2.15 0.7,0.52 1.37,1.01 2.15,1.58 -0.07,0.09 -0.18,0.36 -0.38,0.52 -1.35,1.12 -2.78,2.07 -4.5,2.58 -1.05,0.31 -2.04,0.82 -3.09,1.25 0.43,0.8 1,1 1.68,0.97 2.24,-0.11 4.36,-0.74 6.43,-1.57 0.48,-0.19 0.95,-0.4 1.53,-0.65 -0.1,0.98 -0.17,1.86 -0.3,2.72 -0.17,1.19 -0.24,2.41 -0.6,3.55 -0.46,1.48 -1.08,2.93 -1.79,4.3 -0.82,1.59 -1.72,3.15 -2.77,4.6 -1.68,2.32 -2.66,4.91 -3.41,7.64 -0.62,2.24 -1.09,4.49 -1.16,6.81 -0.01,0.41 0.02,2.78 0.25,3.5 0.23,0.72 2.21,4.19 2.49,4.19 0.29,0 0.34,-0.95 0.6,-1.41 0.9,-1.57 1.94,-3.07 2.95,-4.58 0.48,-0.72 1.26,-0.9 2.06,-1.05 3.72,-0.7 7.48,-0.91 11.26,-0.95 2.45,-0.02 4.91,-0.02 7.35,0.17 1.71,0.13 3.39,0.58 5.08,0.91 1.13,0.23 1.95,0.91 2.58,1.86 1.62,2.45 3,5.02 3.9,7.83 0.03,0.08 0.08,0.16 0.2,0.39 0.67,-1.8 0.7,-3.49 0.25,-5.2 -0.24,-0.9 -0.53,-1.79 -0.71,-2.69 -0.2,-1.01 -0.71,-1.78 -1.62,-2.22 -2.16,-1.05 -4.32,-2.11 -6.51,-3.09 -1.51,-0.68 -3.07,-1.24 -4.59,-1.87 -1.34,-0.55 -2.1,-0.42 -3.15,0.59 -0.07,0.06 -0.13,0.13 -0.19,0.19 -1.59,1.78 -3.31,1.79 -5.41,-0.13 0.26,-0.5 0.53,-1.02 0.82,-1.57 0.18,0.07 0.35,0.12 0.51,0.19 1.16,0.47 2.27,0.4 3.19,-0.38 0.07,-0.06 0.15,-0.12 0.22,-0.19 0.26,-0.26 0.49,-0.55 0.73,-0.83 0.47,-0.55 0.91,-1.12 1.29,-1.72 0.62,-0.98 1.34,-1.82 2.22,-2.49 0.07,0.01 0.13,0.02 0.2,0.03 2.09,0.4 4.72,-1.43 5.18,-3.65 3.62,4.33 6.64,8.79 7.91,14.25 0.25,-2.74 0.41,-5.44 -0.83,-8.05 -2.14,-4.5 -4.57,-8.81 -7.6,-12.77 -0.67,-0.87 -1.44,-1.13 -2.38,-0.79 -0.71,0.26 -0.79,0.67 -0.23,1.19 0.07,0.06 0.14,0.13 0.22,0.16 1.2,0.4 1.54,3.86 1.56,4.57 0.03,0.84 -0.56,1.43 -1.27,1.12 -2.02,-0.89 -3.63,0.02 -5.31,0.92 -0.87,0.47 -1.8,0.84 -2.74,1.15 -0.35,0.12 -0.94,0.08 -1.19,-0.14 -0.66,-0.58 -1.31,-1.19 -1.94,-1.8 v 0 c 0,0 -1.31,-0.99 -4.17,-1.02 -0.02,0 -0.03,0 -0.05,-0.01 -0.81,0 -1.56,0.02 -2.29,-0.02 -0.17,-0.01 -0.47,-0.24 -0.48,-0.38 -0.05,-1.1 -0.11,-2.21 -0.03,-3.31 0.05,-0.64 0.98,-1.31 1.78,-1.47 3.82,1.11 3.66,-0.82 3.7,-3.52 -0.01,-2.58 -0.02,-5.15 -0.03,-7.73 h -0.01 c 0,0 0,-0.2 0.01,-0.52 0,-0.11 0,-0.22 0,-0.33 0,-0.02 0,-0.05 0,-0.07 0,-0.06 0.01,-0.1 0.01,-0.16 0.02,-0.91 0.05,-2.19 0.1,-3.05 0.08,-1.47 0.94,-5.09 0.94,-5.09 v 0 c 0,0 0,0 0,0 0.11,-0.53 0.23,-1.06 0.34,-1.59 0.47,-2.25 0.14,-4.42 -0.68,-6.53 -0.19,-0.5 -0.58,-0.92 -0.87,-1.37 -0.06,0.03 -0.2,0.81 -0.11,1.14 0.66,2.26 0.1,4.45 -0.39,6.63 -0.19,0.83 -0.45,1.66 -0.74,2.46 -0.07,0.2 -0.41,0.44 -0.62,0.43 -0.21,-0.01 -4.1,-1.44 -4.92,-1.71 -2.23,-0.73 -4.45,-1.49 -6.67,-2.24 -0.88,-0.3 -1.75,-0.6 -2.63,-0.89 -0.91,-0.3 -1.81,-0.2 -2.65,0.19 -1.1,0.51 -2.17,1.09 -3.33,1.67 0.2,-0.7 0.4,-1.43 0.62,-2.15 0.13,-0.43 0.33,-0.85 0.46,-1.28 0.19,-0.58 0.42,-1.07 1.12,-1.21 0.15,-0.03 0.36,-0.47 0.31,-0.66 -0.13,-0.45 -0.41,-0.85 -0.6,-1.28 -0.48,-1.11 -0.95,-2.23 -1.42,-3.35 -0.23,-0.56 0.1,-0.92 0.53,-1.09 1.34,-0.54 2.66,-1.2 4.06,-1.48 1.52,-0.3 3.05,-0.57 4.58,-0.81 0.51,-0.08 1.01,-0.14 1.52,-0.22 0.87,-0.13 1.74,-0.27 2.61,-0.38 0.1,-0.01 0.19,-0.02 0.29,-0.03 0.2,-0.02 0.39,-0.06 0.59,-0.08 2.09,-0.25 4.22,-0.27 6.33,-0.3 0.63,-0.01 1.25,-0.02 1.88,-0.03 1.17,-0.02 2.34,-0.04 3.51,-0.06 2.11,-0.03 4.23,-0.04 6.34,-0.02 3.13,0.03 6.27,0.16 9.4,0.39 3.94,0.3 7.81,0.99 11.47,2.57 0.77,0.33 1.51,0.73 2.23,1.15 1.39,0.81 2.05,2.08 2.13,3.65 0.26,5.18 1.38,10.23 2.17,15.34 0.06,0.41 0.12,0.82 0.18,1.24 0.01,0.1 0.03,0.2 0.04,0.3 0.04,0.31 0.08,0.62 0.12,0.94 0.02,0.16 0.03,0.32 0.05,0.48 0.03,0.25 0.06,0.51 0.08,0.76 0.01,0.17 0.02,0.34 0.03,0.51 0.02,0.24 0.04,0.49 0.05,0.73 0.01,0.17 0.01,0.34 0.01,0.52 0.01,0.24 0.02,0.48 0.02,0.72 0,0.18 -0.01,0.36 -0.01,0.54 0,0.23 0,0.47 -0.02,0.7 -0.01,0.18 -0.03,0.37 -0.04,0.55 -0.02,0.23 -0.03,0.46 -0.05,0.7 -0.02,0.18 -0.05,0.37 -0.08,0.55 -0.03,0.22 -0.05,0.44 -0.09,0.67 0,0.01 0,0.01 0,0.02 0,0.01 0,0.02 0,0.03 -0.12,0.67 -0.37,1.33 -0.81,1.85 -0.01,0.01 -0.02,0.02 -0.02,0.03 -0.01,0.01 -0.01,0.02 -0.02,0.04 -2.77,4 -4.16,8.56 -5.5,13.15 -0.02,0.08 -0.02,0.17 -0.03,0.25 0.96,-0.94 1.92,-1.88 2.88,-2.81 0,0 0,0 0,0 0.07,0.03 0.07,0.03 0.14,0.07 -0.17,1.5 -0.29,2.96 -0.39,4.43 z m -55.85,-27.21 c 1.09,-0.92 2.13,-1.9 3.27,-2.71 0.52,-0.37 1.25,-0.52 1.9,-0.6 0.82,-0.1 1.66,-0.02 2.48,-0.02 0,0.06 -1.97,0.94 -2.89,1.43 -0.97,0.52 -1.89,1.15 -2.8,1.78 -0.66,0.45 -1.29,0.43 -1.96,0.12 z m 13.59,20.11 c -0.85,3.49 -1.32,7.08 -2.95,10.34 -0.5,1.01 -1.21,1.91 -1.82,2.86 -0.16,0.25 -0.31,0.5 -0.46,0.74 -0.1,-0.08 -0.34,-0.17 -0.25,-0.71 0.8,-4.84 2.91,-9.12 5.48,-13.23 z m 43.4,56.73 c 2.01,-6.64 3.53,-13.34 3.1,-20.46 0.45,0.52 0.93,1.03 1.35,1.57 0.27,0.35 0.52,0.72 0.75,1.09 l 7.23,3.74 c 0,0 0,0 0,0 0.14,0.07 0.27,0.14 0.41,0.21 l 0.72,0.37 v 0 c 1.27,0.66 2.54,1.33 3.8,2 -5.26,4.64 -11.11,8.5 -17.36,11.48 z"
   id="path7" />
		<path
   d="m 237.87,240.37 c 0,0 0,0 0,0 -3.36,-0.01 -6.73,-0.01 -10.09,0 -1.26,0 -1.83,0.43 -1.98,1.66 -0.15,1.24 -0.23,2.49 -0.25,3.73 -0.04,2.61 -0.01,5.23 -0.02,7.84 0,1 -0.09,2 -0.03,2.99 0.09,1.4 0.67,1.92 2.1,1.92 6.61,-0.03 13.23,-0.07 19.84,-0.12 3.9,-0.03 8.25,-3.63 8.63,-7.35 0.2,-1.96 0.27,-3.86 -0.58,-5.66 -1.51,-3.2 -4.17,-4.82 -7.61,-4.98 -3.33,-0.15 -6.67,-0.03 -10.01,-0.03 z"
   id="path8" />
		<path
   d="m 213.39,258.5 c 0.77,0 1.55,-0.03 2.31,-0.11 1.34,-0.15 1.9,-0.74 1.92,-2.08 0.03,-1.66 -0.01,-3.32 0.01,-4.98 0.03,-2.93 0.12,-5.86 0.12,-8.79 0,-1.44 -0.61,-2.05 -2.04,-2.07 -3.36,-0.04 -6.73,-0.01 -10.09,-0.01 0,-0.03 0,-0.06 0,-0.09 -3.14,0 -6.27,-0.01 -9.41,0.01 -0.61,0 -1.24,0.01 -1.83,0.14 -2.81,0.64 -5.13,1.95 -6.47,4.68 -1.03,2.1 -1.04,4.23 -0.44,6.41 1.06,3.88 4.67,6.78 8.46,6.8 5.82,0.04 11.64,0.07 17.46,0.09 z"
   id="path9" />
		<path
   d="m 244.34,347.27 c -0.07,-0.01 -0.15,-0.03 -0.22,-0.04 -0.38,0.94 -0.83,1.87 -1.11,2.84 -0.23,0.77 -0.36,1.6 -0.33,2.4 0.03,0.93 0.66,1.42 1.44,1.37 0.81,-0.05 1.31,-0.57 1.18,-1.56 -0.23,-1.69 -0.63,-3.35 -0.96,-5.01 z"
   id="path10" />
		<path
   d="m 237.62,357.38 c -0.94,1.73 -1.27,3.61 -1.26,5.56 0,0.23 0.3,0.6 0.54,0.67 1,0.32 1.68,-0.05 1.87,-1.09 0.35,-1.85 -0.24,-3.55 -0.95,-5.23 -0.12,0.05 -0.19,0.06 -0.2,0.09 z"
   id="path11" />
		<path
   d="m 251.71,291.38 c -0.72,-0.4 -1.4,-0.77 -2.08,-1.14 0,0 0,0 -0.01,0 -0.02,-0.01 -0.04,-0.02 -0.05,-0.03 -0.14,-0.08 -0.28,-0.16 -0.43,-0.23 0,0 0.01,0 0.01,-0.01 -1.06,-0.72 -1.55,-1.82 -1.58,-1.9 -0.82,-1.21 -2.04,-1.53 -3.36,-1.83 -1.5,-0.34 -2.97,-0.84 -4.58,-1.3 1.3,-0.54 2.41,-1.02 3.54,-1.45 0.65,-0.25 1.33,-0.44 2.01,-0.6 0.69,-0.16 1.32,0.01 1.95,0.35 1.49,0.81 3,1.57 4.51,2.35 0.06,-0.03 0.11,-0.07 0.17,-0.1 -0.18,-0.59 -0.31,-1.2 -0.55,-1.76 -0.67,-1.55 -1.72,-2.83 -3.03,-3.89 -0.22,-0.17 -0.56,-0.19 -0.84,-0.27 -0.1,-0.03 -0.24,0 -0.31,-0.07 -1.22,-1.09 -2.61,-1.29 -4.08,-1.07 -0.22,0.04 -0.45,0.08 -0.69,0.13 -2.95,0.69 -5.9,1.36 -8.83,2.11 -1.29,0.33 -2.52,0.85 -3.87,1.31 -1.25,0.3 -1.83,-0.26 -2.58,-0.35 -0.33,-0.04 -0.78,-0.23 -0.92,-0.48 -1.22,-2.26 -1.6,-4.7 -1.29,-7.24 0.11,-0.87 0.32,-1.72 0.49,-2.58 -0.87,-0.06 -1.62,0.48 -1.79,1.61 -0.21,1.41 -0.33,2.84 -0.34,4.26 -0.01,0.46 0.02,0.91 0.04,1.36 0.01,0.21 0.03,0.43 0.06,0.64 0.02,0.19 0.05,0.38 0.07,0.57 0.09,0.61 0.2,1.22 0.35,1.82 0,0 0,0 0,0 0.14,0.48 0.28,0.93 0.43,1.37 0.09,0.25 0.16,0.49 0.26,0.74 0,0 -0.01,0 -0.01,0 0.99,2.79 1.93,4.43 1.97,4.51 0,0 0,0 0,0 0.18,0.22 0.34,0.45 0.48,0.69 0.04,0.07 0.08,0.14 0.12,0.21 0.05,0.1 0.1,0.2 0.14,0.3 0.04,0.1 0.08,0.21 0.12,0.31 0.03,0.08 0.06,0.17 0.09,0.25 0.05,0.19 0.09,0.38 0.12,0.58 0.01,0.07 0.02,0.15 0.02,0.22 0.02,0.16 0.03,0.32 0.03,0.49 0,0.07 0,0.15 0,0.22 -0.01,0.24 -0.02,0.48 -0.06,0.74 0.42,-0.39 0.7,-0.68 1.01,-0.93 0,0 0,0 0,0 0.95,-0.78 1.64,-0.74 2.49,0.15 0,0 0,0.01 0.01,0.01 0,0 0,0 0,0 0.35,0.37 0.69,0.74 1.04,1.12 0.35,0.38 0.7,0.75 1.06,1.11 0.59,0.59 1.22,1.15 1.86,1.7 1.35,1.17 3,1.57 4.72,1.59 0.13,0 0.26,-0.01 0.4,-0.04 0.06,-0.01 0.12,-0.04 0.18,-0.06 0.07,-0.02 0.15,-0.04 0.22,-0.07 0.06,-0.02 0.12,-0.05 0.18,-0.08 0.07,-0.03 0.15,-0.06 0.22,-0.1 0.05,-0.02 0.09,-0.05 0.14,-0.08 0.08,-0.04 0.15,-0.09 0.22,-0.13 0,0 0,0 0,0 0.48,-0.32 0.45,-0.76 -0.07,-0.99 -0.02,-0.01 -0.04,-0.02 -0.06,-0.03 -0.45,-0.18 -0.9,-0.36 -1.35,-0.53 -0.73,-0.28 -1.47,-0.57 -2.2,-0.86 -0.49,-0.2 -0.96,-0.45 -1.42,-0.75 1.44,0.01 2.86,0.01 4.29,-0.75 -1.28,-0.38 -2.46,-0.75 -3.64,-1.09 -1.07,-0.31 -2.05,-0.76 -2.75,-1.65 -0.17,-0.21 -0.28,-0.74 -0.16,-0.86 0.41,-0.41 0.93,-0.72 1.43,-1.03 0.03,-0.02 0.29,0.25 0.37,0.43 1.05,2.25 3.83,2.59 5.64,2.13 0.66,-0.17 1.1,-0.57 1.22,-1.3 0.11,-0.67 0.36,-0.75 0.94,-0.39 0.04,0.02 0.07,0.05 0.11,0.08 1.29,0.86 1.32,1.19 0.08,2.17 -0.54,0.43 -1.18,0.75 -1.77,1.12 0.55,0.17 1.48,0.09 2.34,-0.45 0.68,-0.43 1.22,-1.09 1.85,-1.68 0.86,0.44 1.81,0.91 2.75,1.4 0.97,0.52 1.92,0.33 2.95,0 z"
   id="path12" />
	</g>
	<g
   id="g25">
		<g
   id="g21">
			<path
   d="m 347.32,304.88 c -3.61,0 -7.22,0 -10.82,0 v -31.64 h -12.78 v 31.64 c -3.61,0 -7.27,0 -10.82,0 v -41.4 c 3.55,0 7.22,0 34.42,0 z"
   id="path13" />
			<path
   d="m 361.99,304.88 h -10.35 v -1.54 l 18.63,-40.4 h 4.55 l 18.69,40.4 v 1.54 h -10.35 l -10.65,-24.25 z"
   id="path14" />
			<path
   d="M 425.33,299.67 H 409 l -2.43,5.2 h -10.35 v -1.54 l 18.63,-40.4 h 4.55 l 18.69,40.4 v 1.54 h -10.35 z m -8.22,-19.93 -4.67,10.88 h 9.46 z"
   id="path15" />
			<path
   d="m 469.57,283.35 c 3.37,1.72 4.97,4.79 4.97,8.46 -0.06,7.22 -4.44,13.07 -12.89,13.07 h -19.4 v -41.4 h 17.68 c 7.16,0 12.89,5.56 12.89,12.72 0,2.48 -1.24,5.49 -3.25,7.15 z m -17.09,-10.41 v 6.68 h 6.68 c 4.2,0 4.2,-6.68 -0.06,-6.68 z m 0,15.49 v 7.04 h 8.46 c 4.26,0 4.2,-7.04 -0.06,-7.04 z"
   id="path16" />
			<path
   d="m 484.36,304.94 h -3.79 v -41.46 c 3.61,0 7.22,0 10.82,0 v 20.29 l 20.94,-20.46 h 3.84 v 41.58 c -3.61,0 -7.27,0 -10.94,0 v -20.35 z"
   id="path17" />
			<path
   d="m 530.78,304.88 h -10.35 v -1.54 l 18.63,-40.4 h 4.55 l 18.69,40.4 v 1.54 H 551.95 L 541.3,280.63 Z"
   id="path18" />
			<path
   d="m 576.92,275.84 h 7.63 c 19.81,0 19.81,28.98 0,29.04 -6.09,0 -12.24,0 -18.22,0 0,-13.84 0,-27.62 0,-41.4 3.49,0 7.04,0 10.59,0 z m 0,9.52 c 0,3.37 0,6.68 0,10.05 2.43,0 5.09,0.06 7.57,0 6.15,-0.06 5.8,-10.05 0,-10.05 z"
   id="path19" />
			<path
   d="m 639.25,304.88 c -3.61,0 -7.22,0 -10.82,0 v -16.62 h -12.78 v 16.62 c -3.61,0 -7.27,0 -10.82,0 v -41.4 c 3.55,0 7.22,0 10.82,0 v 15.02 h 12.78 v -15.02 c 3.61,0 7.22,0 10.82,0 z"
   id="path20" />
			<path
   d="m 652.21,290.21 c -10.47,-7.1 -7.51,-26.67 8.75,-26.73 6.03,0 12.18,0 18.16,0 0,13.84 0,27.62 0,41.4 -3.43,0 -7.04,0 -10.59,0 V 292.7 h -5.5 l -7.1,12.18 H 644.1 v -1.54 z m 16.32,-7.04 c 0,-3.31 0,-6.86 0,-10.23 -2.48,0 -5.09,-0.06 -7.57,0 -6.03,0.06 -5.74,10.23 0,10.23 z"
   id="path21" />
		</g>
		<g
   id="g24">
			<g
   id="g22">
				<path
   d="m 693.92,273.79 v 0.24 h -1.88 l -1.13,-1.94 h -0.88 v 1.94 c -0.57,0 -1.14,0 -1.69,0 0,-2.19 0,-4.39 0,-6.59 0.95,0 1.93,0 2.89,0 2.59,0.01 3.06,3.13 1.39,4.26 z m -2.69,-4.84 c -0.4,-0.01 -0.81,0 -1.21,0 0,0.54 0,1.12 0,1.65 h 1.21 c 0.92,0 0.96,-1.64 0,-1.65 z"
   id="path22" />
			</g>
			<g
   id="g23">
				<path
   d="m 690.86,277.89 c -3.87,0 -7.02,-3.15 -7.02,-7.02 0,-3.87 3.15,-7.02 7.02,-7.02 3.87,0 7.02,3.15 7.02,7.02 0,3.87 -3.15,7.02 -7.02,7.02 z m 0,-12.73 c -3.15,0 -5.72,2.57 -5.72,5.72 0,3.15 2.57,5.72 5.72,5.72 3.15,0 5.72,-2.57 5.72,-5.72 0,-3.15 -2.57,-5.72 -5.72,-5.72 z"
   id="path23" />
			</g>
		</g>
	</g>
	<g
   id="g44">
		<g
   id="g41">
			<path
   d="m 313.09,331.35 v -14.22 h 13.63 v 14.22 h -3.33 v -12.19 l 0.75,0.8 h -8.52 l 0.77,-0.8 v 12.19 z"
   id="path25" />
			<path
   d="m 337.82,331.54 c -1.58,0 -2.96,-0.31 -4.14,-0.95 -1.18,-0.63 -2.09,-1.49 -2.74,-2.58 -0.65,-1.09 -0.97,-2.35 -0.97,-3.77 0,-1.42 0.31,-2.68 0.95,-3.77 0.63,-1.09 1.5,-1.95 2.61,-2.58 1.11,-0.63 2.37,-0.94 3.79,-0.94 1.38,0 2.62,0.31 3.7,0.92 1.08,0.61 1.93,1.47 2.56,2.57 0.62,1.1 0.93,2.4 0.93,3.91 0,0.12 0,0.28 -0.01,0.47 -0.01,0.19 -0.02,0.35 -0.04,0.49 H 332.6 v -2.21 h 10.09 l -1.33,0.69 c 0.02,-0.8 -0.15,-1.51 -0.49,-2.14 -0.35,-0.63 -0.82,-1.12 -1.42,-1.46 -0.6,-0.35 -1.31,-0.52 -2.13,-0.52 -0.8,0 -1.51,0.17 -2.14,0.52 -0.63,0.35 -1.11,0.84 -1.45,1.48 -0.34,0.64 -0.51,1.38 -0.51,2.21 v 0.53 c 0,0.85 0.19,1.61 0.57,2.26 0.38,0.66 0.93,1.17 1.64,1.53 0.71,0.36 1.53,0.55 2.48,0.55 0.8,0 1.52,-0.13 2.16,-0.4 0.64,-0.27 1.21,-0.66 1.7,-1.17 l 1.81,2.08 c -0.66,0.75 -1.47,1.31 -2.44,1.7 -0.98,0.38 -2.08,0.58 -3.32,0.58 z"
   id="path26" />
			<path
   d="m 352.59,326.83 c -1.81,0 -3.21,-0.42 -4.19,-1.25 -0.99,-0.83 -1.48,-2.14 -1.48,-3.91 v -4.53 h 3.3 v 4.31 c 0,0.96 0.27,1.65 0.83,2.08 0.55,0.43 1.3,0.64 2.26,0.64 0.64,0 1.28,-0.08 1.93,-0.24 0.65,-0.16 1.27,-0.38 1.88,-0.67 v 2.48 c -0.67,0.32 -1.39,0.58 -2.14,0.79 -0.76,0.19 -1.56,0.3 -2.39,0.3 z m 4.29,4.52 v -14.22 h 3.33 v 14.22 z"
   id="path27" />
			<path
   d="m 371.3,331.54 c -1.58,0 -2.96,-0.31 -4.14,-0.95 -1.18,-0.63 -2.09,-1.49 -2.74,-2.58 -0.65,-1.09 -0.97,-2.35 -0.97,-3.77 0,-1.42 0.31,-2.68 0.95,-3.77 0.63,-1.09 1.5,-1.95 2.61,-2.58 1.11,-0.63 2.37,-0.94 3.79,-0.94 1.38,0 2.62,0.31 3.7,0.92 1.08,0.61 1.93,1.47 2.56,2.57 0.62,1.1 0.93,2.4 0.93,3.91 0,0.12 0,0.28 -0.01,0.47 -0.01,0.19 -0.02,0.35 -0.04,0.49 h -11.85 v -2.21 h 10.09 l -1.33,0.69 c 0.02,-0.8 -0.15,-1.51 -0.49,-2.14 -0.35,-0.63 -0.82,-1.12 -1.42,-1.46 -0.6,-0.35 -1.31,-0.52 -2.13,-0.52 -0.8,0 -1.51,0.17 -2.14,0.52 -0.63,0.35 -1.11,0.84 -1.45,1.48 -0.34,0.64 -0.51,1.38 -0.51,2.21 v 0.53 c 0,0.85 0.19,1.61 0.57,2.26 0.38,0.66 0.93,1.17 1.64,1.53 0.71,0.36 1.53,0.55 2.48,0.55 0.8,0 1.52,-0.13 2.16,-0.4 0.64,-0.27 1.21,-0.66 1.7,-1.17 l 1.81,2.08 c -0.66,0.75 -1.47,1.31 -2.44,1.7 -0.98,0.38 -2.08,0.58 -3.33,0.58 z"
   id="path28" />
			<path
   d="m 381.66,331.35 v -14.22 h 3.43 l 5.75,10.09 h -1.38 l 6.02,-10.09 h 3.11 l 0.03,14.22 h -3.03 v -10.62 l 0.56,0.32 -5.32,8.81 h -1.44 l -5.35,-9.05 0.61,-0.16 v 10.7 z"
   id="path29" />
			<path
   d="m 432.42,331.35 v -14.22 h 13.63 v 14.22 h -3.33 v -12.19 l 0.75,0.8 h -8.52 l 0.77,-0.8 v 12.19 z"
   id="path30" />
			<path
   d="m 450.28,331.62 c -0.27,0 -0.56,-0.03 -0.87,-0.08 -0.31,-0.05 -0.63,-0.13 -0.97,-0.21 l 0.16,-2.77 c 0.12,0.02 0.24,0.04 0.35,0.05 0.11,0.02 0.2,0.03 0.29,0.03 0.55,0 0.98,-0.17 1.29,-0.52 0.31,-0.35 0.54,-0.8 0.69,-1.37 0.15,-0.57 0.25,-1.22 0.31,-1.94 0.05,-0.73 0.1,-1.46 0.13,-2.18 l 0.21,-5.48 h 11.53 v 14.22 h -3.33 v -12.3 l 0.77,0.91 h -6.76 l 0.72,-0.93 -0.19,3.78 c -0.05,1.24 -0.15,2.4 -0.29,3.49 -0.14,1.08 -0.37,2.01 -0.68,2.79 -0.31,0.78 -0.74,1.4 -1.29,1.85 -0.54,0.43 -1.23,0.66 -2.07,0.66 z"
   id="path31" />
			<path
   d="m 472.06,331.54 c -1.06,0 -2,-0.18 -2.79,-0.55 -0.8,-0.36 -1.41,-0.87 -1.85,-1.52 -0.44,-0.65 -0.65,-1.38 -0.65,-2.2 0,-0.8 0.19,-1.52 0.57,-2.16 0.38,-0.64 1.01,-1.15 1.88,-1.52 0.87,-0.37 2.02,-0.56 3.46,-0.56 h 4.13 v 2.21 h -3.89 c -1.12,0 -1.88,0.18 -2.28,0.55 -0.4,0.36 -0.6,0.82 -0.6,1.37 0,0.59 0.24,1.06 0.72,1.41 0.48,0.35 1.15,0.53 2,0.53 0.82,0 1.55,-0.19 2.2,-0.56 0.65,-0.37 1.12,-0.92 1.42,-1.65 l 0.53,2 c -0.32,0.83 -0.89,1.48 -1.7,1.94 -0.83,0.48 -1.87,0.71 -3.15,0.71 z m 4.47,-0.19 v -2.9 l -0.16,-0.59 v -5.03 c 0,-0.98 -0.3,-1.73 -0.89,-2.28 -0.59,-0.54 -1.5,-0.81 -2.7,-0.81 -0.78,0 -1.55,0.12 -2.32,0.37 -0.76,0.25 -1.42,0.59 -1.97,1.04 l -1.3,-2.42 c 0.78,-0.59 1.69,-1.03 2.74,-1.33 1.05,-0.3 2.14,-0.45 3.27,-0.45 2.08,0 3.67,0.5 4.79,1.49 1.12,0.99 1.68,2.52 1.68,4.58 v 8.33 z"
   id="path32" />
			<path
   d="m 483.83,331.35 v -14.22 h 6.92 c 1.72,0 3.07,0.32 4.06,0.95 0.98,0.63 1.48,1.54 1.48,2.73 0,1.15 -0.46,2.05 -1.38,2.7 -0.92,0.65 -2.15,0.97 -3.67,0.97 l 0.43,-0.85 c 1.7,0 2.98,0.32 3.82,0.96 0.84,0.64 1.26,1.57 1.26,2.79 0,1.24 -0.47,2.21 -1.41,2.92 -0.94,0.7 -2.37,1.05 -4.29,1.05 z m 3.14,-8.28 h 3.46 c 0.85,0 1.5,-0.16 1.94,-0.47 0.44,-0.31 0.67,-0.75 0.67,-1.32 0,-0.57 -0.22,-0.99 -0.67,-1.28 -0.44,-0.28 -1.09,-0.43 -1.94,-0.43 h -3.46 z m 0,5.83 h 3.81 c 0.89,0 1.56,-0.14 2.02,-0.41 0.46,-0.28 0.69,-0.73 0.69,-1.37 0,-0.64 -0.21,-1.11 -0.63,-1.4 -0.42,-0.29 -1.09,-0.44 -2.01,-0.44 h -3.89 v 3.62 z"
   id="path33" />
			<path
   d="m 500.33,331.35 v -14.22 h 3.3 v 9.4 l 7.83,-9.4 h 3.03 v 14.22 h -3.3 v -9.4 l -7.8,9.4 z"
   id="path34" />
			<path
   d="m 519.02,331.35 v -14.22 h 3.43 l 5.75,10.09 h -1.38 l 6.02,-10.09 h 3.11 l 0.03,14.22 h -3.04 v -10.62 l 0.56,0.32 -5.32,8.81 h -1.44 l -5.35,-9.05 0.61,-0.16 v 10.7 z"
   id="path35" />
			<path
   d="m 569.78,331.35 v -14.22 h 3.3 v 14.22 z m 2.32,-5.72 v -2.74 h 4.85 v 2.74 z m 5.75,-1.01 -3.11,-0.37 5.22,-7.11 h 3.54 z m 2.1,6.73 -5.14,-6.81 2.72,-1.68 6.34,8.49 z"
   id="path36" />
			<path
   d="m 592.01,331.54 c -1.44,0 -2.73,-0.31 -3.87,-0.95 -1.15,-0.63 -2.05,-1.5 -2.7,-2.6 -0.66,-1.1 -0.99,-2.35 -0.99,-3.75 0,-1.44 0.33,-2.7 0.99,-3.78 0.66,-1.08 1.55,-1.94 2.69,-2.57 1.14,-0.63 2.43,-0.94 3.89,-0.94 1.47,0 2.78,0.31 3.93,0.94 1.14,0.63 2.04,1.49 2.69,2.57 0.65,1.08 0.97,2.34 0.97,3.78 0,1.42 -0.32,2.67 -0.97,3.77 -0.65,1.09 -1.55,1.95 -2.7,2.58 -1.17,0.63 -2.48,0.95 -3.93,0.95 z m 0,-2.82 c 0.82,0 1.54,-0.18 2.18,-0.55 0.64,-0.37 1.14,-0.89 1.5,-1.57 0.36,-0.68 0.55,-1.47 0.55,-2.36 0,-0.91 -0.18,-1.69 -0.55,-2.36 -0.36,-0.66 -0.87,-1.18 -1.5,-1.54 -0.63,-0.36 -1.36,-0.55 -2.16,-0.55 -0.8,0 -1.52,0.18 -2.16,0.55 -0.64,0.36 -1.15,0.88 -1.52,1.54 -0.37,0.67 -0.56,1.45 -0.56,2.36 0,0.89 0.19,1.67 0.56,2.36 0.37,0.68 0.88,1.21 1.52,1.57 0.65,0.36 1.36,0.55 2.14,0.55 z"
   id="path37" />
			<path
   d="m 602.92,336.52 v -19.38 h 3.17 v 3.35 l -0.13,3.78 0.27,3.78 v 8.47 z m 7.85,-4.98 c -1.17,0 -2.23,-0.26 -3.17,-0.79 -0.94,-0.52 -1.69,-1.33 -2.24,-2.41 -0.55,-1.08 -0.83,-2.45 -0.83,-4.1 0,-1.67 0.26,-3.04 0.79,-4.11 0.52,-1.07 1.26,-1.87 2.22,-2.4 0.96,-0.53 2.03,-0.79 3.22,-0.79 1.38,0 2.62,0.3 3.7,0.9 1.08,0.6 1.94,1.46 2.57,2.56 0.63,1.1 0.95,2.38 0.95,3.83 0,1.47 -0.32,2.75 -0.95,3.85 -0.63,1.09 -1.49,1.94 -2.57,2.54 -1.07,0.62 -2.3,0.92 -3.69,0.92 z m -0.4,-2.82 c 0.82,0 1.54,-0.19 2.17,-0.56 0.63,-0.37 1.13,-0.9 1.5,-1.57 0.37,-0.67 0.56,-1.46 0.56,-2.34 0,-0.91 -0.19,-1.69 -0.56,-2.36 -0.37,-0.66 -0.87,-1.18 -1.5,-1.54 -0.63,-0.36 -1.35,-0.55 -2.17,-0.55 -0.78,0 -1.49,0.18 -2.13,0.55 -0.64,0.36 -1.14,0.88 -1.52,1.54 -0.37,0.67 -0.56,1.45 -0.56,2.36 0,0.89 0.19,1.67 0.56,2.34 0.37,0.67 0.88,1.2 1.52,1.57 0.64,0.37 1.35,0.56 2.13,0.56 z"
   id="path38" />
			<path
   d="m 621.32,331.35 v -14.22 h 3.43 l 5.75,10.09 h -1.38 l 6.02,-10.09 h 3.11 l 0.03,14.22 h -3.04 v -10.62 l 0.56,0.32 -5.32,8.81 h -1.44 l -5.35,-9.05 0.61,-0.16 v 10.7 z"
   id="path39" />
			<path
   d="m 642.8,331.35 v -14.22 h 3.3 v 9.4 l 7.83,-9.4 h 3.03 v 14.22 h -3.3 v -9.4 l -7.8,9.4 z"
   id="path40" />
			<path
   d="m 661.49,331.35 v -14.22 h 3.43 l 5.75,10.09 h -1.38 l 6.02,-10.09 h 3.11 l 0.03,14.22 h -3.04 v -10.62 l 0.56,0.32 -5.32,8.81 h -1.44 l -5.35,-9.05 0.61,-0.16 v 10.7 z"
   id="path41" />
		</g>
		<g
   id="g42">
			<circle
   class="st0"
   cx="552.96002"
   cy="323.51001"
   r="3.23"
   id="circle41" />
		</g>
		<g
   id="g43">
			<circle
   class="st0"
   cx="415.78"
   cy="323.51001"
   r="3.23"
   id="circle42" />
		</g>
	</g>
</g>
</svg>
