<?xml version="1.0" encoding="utf-8"?>
<!-- Generator: Adobe Illustrator 24.0.1, SVG Export Plug-In . SVG Version: 6.00 Build 0)  -->
<svg version="1.1" id="Layer_1" xmlns="http://www.w3.org/2000/svg" xmlns:xlink="http://www.w3.org/1999/xlink" x="0px" y="0px"
	 viewBox="0 0 841.89 595.28" style="enable-background:new 0 0 841.89 595.28;" xml:space="preserve">
<style type="text/css">
	.st0{fill-rule:evenodd;clip-rule:evenodd;}
</style>
<g>
	<g>
		<path d="M427.28,282.46c0.19-0.29,0.04-0.87-0.1-1.25c-0.05-0.14-0.55-0.13-0.85-0.17c-0.47-0.06-0.95-0.08-1.41-0.15
			c-0.84-0.12-1.68-0.39-2.52-0.39c-3.16,0.01-6.31,0.03-9.46,0.18c-1.83,0.08-3.66,0.37-5.48,0.64c-0.69,0.1-1.45,0.27-1.68,1.19
			c1.98,1.09,1.64,1.42,0.88,2.72c-0.04,0.07-0.08,0.14-0.11,0.21c-0.56,1.29,0.11,2.23,1.48,2.07c0.11-0.01,0.21-0.03,0.32-0.05
			c2.57-0.42,5.14-0.94,7.72-1.23c3.03-0.34,6.07-0.37,9.07,0.4c1.43,0.37,2.89,0.59,4.33,0.87c0.05-0.08-1.14-1.95-1.85-2.77
			C427,284.03,426.66,283.43,427.28,282.46z"/>
		<path d="M388.43,248.19c-0.19,0.55-0.35,1.12-0.47,1.69c-0.21,1.03-0.27,2.07,0.18,3.06c0.49,1.06,1.79,1.2,2.44,0.23
			c0.24-0.35,0.39-0.83,0.4-1.26c0.08-1.92-0.98-3.43-1.92-5.2C388.8,247.33,388.58,247.75,388.43,248.19z"/>
		<path d="M451.15,251.29c0.47-2.23-0.2-4.25-1.2-6.2c-0.03-0.05-0.13-0.07-0.25-0.12c-0.18,0.51-0.41,0.99-0.51,1.5
			c-0.32,1.53-0.64,3.05-0.85,4.59c-0.11,0.83,0.62,1.04,1.26,1.15C450.38,252.33,451.02,251.94,451.15,251.29z"/>
		<path d="M447.64,221.53c0.75,0.07,1.15-0.28,1.34-1.36c0.37-2.09-0.33-3.94-1.44-5.86c-1.05,1.85-1.35,3.69-1.28,5.6
			C446.28,220.77,446.93,221.47,447.64,221.53z"/>
		<path d="M396.33,218.05c0.14,1.29,1.2,1.68,2.19,0.85c0.28-0.24,0.58-0.63,0.62-0.97c0.19-1.75-0.1-3.42-1.14-5.07
			C396.65,214.48,396.13,216.17,396.33,218.05z"/>
		<path d="M401.39,288.73c-0.13,0.9,0.06,1.88,0.24,2.8c0.11,0.6,0.73,0.66,1.17,0.47c0.35-0.15,0.78-0.52,0.86-0.87
			c0.5-2.11-0.33-4-1.26-5.9C402.04,286.39,401.56,287.54,401.39,288.73z"/>
		<path d="M508.18,237.45c-2.4-24.64-13.33-45.21-32.49-61.11c-19.05-15.81-41.87-22.71-67.83-20.5
			c-23.03,1.96-45.13,13.69-60.64,32.19c-15.63,18.63-23,42.59-20.76,67.45c2.05,22.78,12.87,43.66,30.46,58.8
			c4.28,3.69,8.9,6.96,13.8,9.82c1.1,0.67,2.21,1.33,3.34,1.95c0.03-0.02,0.06-0.03,0.09-0.05c1.15,0.61,2.32,1.19,3.49,1.76
			c0,0.06,0.01,0.11,0.01,0.17c5.63,2.8,11.59,5.03,17.82,6.61c0.27,0,0.53,0,0.8,0c8.61,2.21,17.64,3.36,26.89,3.36
			c0.25,0,0.51,0,0.76,0h0.01c21.98-0.49,44.28-11.47,61.18-30.13C503.03,287.97,510.8,264.31,508.18,237.45z M465.72,230.7
			c1-0.37,2.33,0.19,3.04,1.28c0.92,1.42,0.72,2.98,0.47,4.59c-0.47-0.72-0.84-1.4-1.31-2c-0.57-0.72-1-0.68-1.66-0.06
			c-2.42,2.27-4.08,5-4.82,8.22c-0.19,0.82,0,1.83,0.3,2.64c0.61,1.65,0.67,3.24-0.12,4.8c-0.8,1.57-0.72,3.31-1.05,4.97
			c-0.03,0.17,0.1,0.5,0.22,0.54c0.22,0.07,0.58,0.07,0.74-0.07c2.06-1.79,3.97-3.69,4.14-6.65c0.09-1.63,0.12-3.22-0.79-4.73
			c-0.58-0.96,0.17-3.71,1.02-4.4c0.58-0.48,1.48-0.14,1.65,0.71c0.35,1.71,0.86,3.41,0.54,5.21c-0.28,1.6-0.51,3.21-0.76,4.81
			c-0.27,1.68-0.98,3.18-2.19,4.36c-1.29,1.26-1.86,2.72-1.88,4.48c-0.01,1.42-0.78,2.53-1.72,3.51c-0.69,0.71-1.62,0.77-2.54,0.68
			c-0.51-0.05-0.59-0.44-0.58-0.88c0.08-2.65,0.13-5.29,0.21-7.94c0.1-3.64,0.17-7.27,0.35-10.9c0.08-1.75,0.32-3.5,0.62-5.23
			c0.13-0.73,0.57-1.42,0.96-2.08c0.77-1.28,1.6-2.52,2.41-3.78C463.63,231.76,464.6,231.11,465.72,230.7z M374.27,190.27
			c-0.02-2.27,0.23-4.44,1.19-6.54c1.1-2.41,2.88-4.11,5.2-5.23c1.64-0.79,3.39-1.35,5.18-2.04c0-1.07-0.02-2.33,0.01-3.58
			c0.02-1.19,0.12-1.27,1.31-1.27c8.48-0.01,16.97-0.02,25.45-0.03c10.22-0.01,20.44-0.02,30.67-0.03c1.18,0,2.35-0.05,3.53-0.03
			c1.1,0.02,1.19,0.13,1.2,1.21c0.01,1.28,0,2.57,0,3.86c1.29,0.26,2.59,0.44,3.83,0.79c6.32,1.79,9.16,7.5,8.76,13.09
			c-0.17,2.41-0.63,4.73-2.1,6.7c-2.4,3.2-5.44,5.5-9.57,5.72c-4.48,0.23-8.98,0.26-13.47,0.32c-3.85,0.05-7.71,0.02-11.56,0.01
			c-0.61,0-1.23-0.06-1.83-0.18c-1.58-0.32-2.68-1.48-2.77-3.19c-0.13-2.37-0.14-4.75-0.14-7.13c-0.01-3.37,0.02-6.74,0.06-10.11
			c0.01-1.04,0.05-2.08,0.19-3.11c0.19-1.44,1.2-2.18,2.53-2.42c1.15-0.21,2.33-0.33,3.5-0.34c6.13-0.04,12.26-0.03,18.38-0.03
			c0.5,0,1.01,0,1.57,0c0-0.81,0-1.54,0-2.31c-18.94,0-37.9,0-56.89,0c0,0.83,0,1.52,0,2.33c0.36,0,0.67,0,0.97,0
			c5.99,0,11.99-0.01,17.98,0.03c1.84,0.01,3.7,0.05,5.51,0.32c1.88,0.28,2.79,1.57,2.77,3.45c-0.04,4.31-0.12,8.62-0.15,12.92
			c-0.01,1.52,0.14,3.05,0.12,4.57c-0.01,1.01-0.1,2.03-0.33,3.01c-0.23,1.01-1.02,1.64-2.02,1.85c-0.91,0.19-1.85,0.34-2.77,0.34
			c-6.96-0.01-13.91-0.09-20.87-0.08c-2.34,0.01-4.63-0.02-6.85-0.87C378.74,200.68,374.31,196.09,374.27,190.27z M449.87,311.25
			c-2.14,5.41-3.79,10.58-7.42,15.15c-0.63,0.79-1.45,2.04-2.17,2.75c-0.11,0.11-0.76,1.17-1.48,2.33
			c-6.87,1.75-13.97,2.66-21.12,2.66c-0.07,0-0.13,0-0.2,0h0c-0.01,0-0.02,0-0.03,0c-4.04,0-8.06-0.29-12.01-0.84
			c-0.62-1.37-1.2-3.43-1.49-3.9c-1.34-2.18-1.81-5.97-2.46-8.67c1.56,1,2.93,1.84,4.27,2.74c2.51,1.68,5.22,2.74,8.26,2.92
			c1.46,0.09,3.05-0.59,3.51-1.7c0.63-1.5,0.81-3.05-0.42-4.34c-1.78-1.87-3.21-3.92-3.68-6.51c-0.01-0.07-0.02-0.14-0.03-0.27
			c2.68,0.38,5.35,0.37,7.8-0.74c0.57-0.26,1.14-0.54,1.7-0.83c0.14-0.07,0.27-0.14,0.4-0.22c1.34-0.71,2.65-1.47,3.96-2.2
			l0.01-0.01c0,0,13.51-8.56,17.11-12.67c2.1-2.67,4.2-5.34,6.31-8.02c0,1.28,0,2.39,0,3.49c0,5.11-0.02,10.22,0.03,15.33
			C450.72,308.98,450.32,310.11,449.87,311.25z M453.59,267.25c-0.15,2.05-0.41,4.11-0.41,6.16c0.02,5.95-2.56,10.58-6.88,14.48
			c-2.13,1.93-4.37,3.62-6.89,5.03c-1.41,0.79-2.51,2.13-3.72,3.25c-1.35,1.25-2.63,2.58-4.03,3.78c-1.48,1.26-3.22,1.67-5.21,1.6
			c-4.62-0.17-9.25-0.12-13.88-0.21c-2.16-0.04-4.33-0.11-6.48-0.35c-0.77-0.09-1.58-0.61-2.2-1.15c-1.77-1.55-3.43-3.22-5.17-4.81
			c-0.82-0.75-1.83-1.32-2.57-2.15c-0.77-0.87-1.31-1.95-1.95-2.94c0.09-0.1,0.18-0.2,0.27-0.3c0.51,0.21,1.66,0.57,1.72,0.54
			c-0.59-0.94-1.04-2.03-1.81-2.8c-2.13-2.15-2.85-4.83-3.43-7.67c-0.6-2.96-0.22-5.84,0.14-8.75c0.29-2.38,0.57-4.77,0.86-7.15
			c0.09-0.77,0.16-1.55,0.36-2.29c0.08-0.31,0.12-0.6,0.14-0.88c0-0.05,0.01-0.1,0.01-0.15c0.01-0.27-0.01-0.54-0.06-0.79
			c-0.01-0.05-0.02-0.1-0.03-0.15c-0.06-0.26-0.13-0.52-0.24-0.76c-0.01-0.01-0.01-0.02-0.02-0.03c-0.11-0.24-0.24-0.48-0.38-0.71
			c-0.03-0.04-0.05-0.08-0.07-0.12c-0.15-0.23-0.32-0.45-0.5-0.67c-0.05-0.06-0.1-0.12-0.15-0.18c-0.62-0.73-1.39-1.43-2.2-2.14
			c-0.72-0.63-1.52-1.16-2.3-1.71c-0.05-0.03-0.08-0.07-0.13-0.1c-0.07-0.06-0.14-0.12-0.21-0.18c-0.12-0.1-0.22-0.2-0.33-0.31
			c-0.06-0.06-0.12-0.13-0.18-0.2c-0.1-0.12-0.19-0.26-0.28-0.39c-0.04-0.06-0.09-0.13-0.12-0.19c-0.11-0.21-0.22-0.43-0.3-0.67
			c-0.73-2.17-1.47-4.33-2.16-6.51c-0.51-1.61,0.17-2.96,1.15-4.12c0.18-0.21,0.35-0.39,0.51-0.55c0.02-0.02,0.04-0.03,0.06-0.05
			c0.15-0.14,0.3-0.26,0.45-0.36c0.01-0.01,0.02-0.01,0.04-0.02c0.16-0.1,0.32-0.19,0.49-0.25c0,0,0.01,0,0.01,0
			c0.17-0.06,0.35-0.1,0.54-0.12c0.4-0.15,1.79-0.5,4.81,0.03c0,0,0-0.01,0-0.01c1.54,0.24,4.67,0.55,4.69,0.47
			c-1.3-0.89-3.03-1.11-4.26-2.54c0.91-0.63,1.75-1.22,2.75-1.91c0.43,2.41,1.97,2.72,3.8,2.7c1.89-0.02,3.21-0.84,3.89-2.53
			c0.82,0.61,1.61,1.18,2.53,1.86c-0.08,0.11-0.21,0.42-0.44,0.62c-1.58,1.32-3.27,2.44-5.3,3.04c-1.24,0.37-2.4,0.96-3.64,1.47
			c0.51,0.94,1.18,1.18,1.98,1.14c2.64-0.13,5.13-0.87,7.57-1.84c0.56-0.23,1.11-0.47,1.8-0.76c-0.12,1.15-0.2,2.18-0.35,3.21
			c-0.2,1.4-0.29,2.84-0.71,4.17c-0.55,1.74-1.27,3.44-2.1,5.06c-0.97,1.87-2.03,3.71-3.25,5.41c-1.97,2.74-3.13,5.78-4.01,8.99
			c-0.72,2.63-1.28,5.28-1.36,8.02c-0.01,0.49,0.02,3.27,0.29,4.12c0.27,0.85,2.59,4.93,2.93,4.93c0.34,0,0.4-1.12,0.71-1.66
			c1.06-1.85,2.29-3.61,3.47-5.39c0.56-0.85,1.49-1.06,2.42-1.24c4.38-0.82,8.81-1.07,13.25-1.12c2.88-0.03,5.77-0.02,8.64,0.2
			c2.01,0.15,3.99,0.68,5.97,1.07c1.33,0.27,2.29,1.07,3.03,2.19c1.91,2.89,3.54,5.91,4.59,9.22c0.03,0.1,0.09,0.19,0.23,0.46
			c0.79-2.11,0.82-4.1,0.3-6.12c-0.28-1.06-0.62-2.1-0.84-3.17c-0.24-1.19-0.83-2.09-1.91-2.61c-2.54-1.24-5.08-2.48-7.66-3.64
			c-1.77-0.8-3.61-1.46-5.41-2.2c-1.57-0.65-2.47-0.5-3.71,0.69c-0.08,0.07-0.15,0.15-0.23,0.23c-1.87,2.09-3.89,2.11-6.37-0.16
			c0.31-0.59,0.63-1.2,0.96-1.84c0.22,0.08,0.41,0.14,0.6,0.22c1.37,0.55,2.67,0.47,3.75-0.45c0.09-0.07,0.17-0.14,0.26-0.23
			c0.3-0.31,0.58-0.64,0.86-0.97c0.55-0.64,1.08-1.31,1.52-2.03c0.72-1.16,1.57-2.14,2.61-2.93c0.08,0.01,0.16,0.02,0.24,0.04
			c2.46,0.47,5.55-1.68,6.1-4.29c4.26,5.09,7.81,10.34,9.31,16.76c0.3-3.22,0.48-6.41-0.98-9.47c-2.52-5.29-5.37-10.37-8.95-15.03
			c-0.79-1.03-1.69-1.33-2.8-0.93c-0.84,0.31-0.93,0.78-0.27,1.4c0.08,0.07,0.16,0.16,0.26,0.19c1.41,0.47,1.81,4.55,1.84,5.37
			c0.03,0.99-0.66,1.69-1.49,1.32c-2.37-1.04-4.28,0.02-6.25,1.08c-1.02,0.55-2.12,0.99-3.23,1.36c-0.42,0.14-1.1,0.09-1.4-0.17
			c-0.78-0.69-1.54-1.4-2.28-2.12l0,0c0,0-1.54-1.17-4.91-1.21c-0.02,0-0.04-0.01-0.06-0.01c-0.96,0-1.83,0.02-2.7-0.02
			c-0.2-0.01-0.56-0.28-0.56-0.45c-0.06-1.3-0.13-2.61-0.03-3.9c0.06-0.76,1.16-1.54,2.09-1.73c4.49,1.3,4.31-0.96,4.35-4.14
			c-0.01-3.03-0.02-6.06-0.03-9.09l-0.01,0c0,0,0-0.24,0.01-0.62c0-0.13,0-0.26,0-0.39c0-0.03,0-0.05,0-0.08
			c0-0.07,0.01-0.12,0.01-0.18c0.02-1.07,0.06-2.57,0.12-3.59c0.1-1.72,1.1-5.99,1.1-5.99l0.01,0c0,0,0,0,0,0
			c0.13-0.62,0.27-1.25,0.4-1.87c0.56-2.65,0.16-5.2-0.8-7.68c-0.23-0.58-0.68-1.08-1.03-1.62c-0.07,0.04-0.24,0.96-0.13,1.34
			c0.77,2.66,0.11,5.23-0.46,7.8c-0.22,0.98-0.53,1.95-0.87,2.9c-0.09,0.24-0.48,0.52-0.73,0.51c-0.24-0.01-4.83-1.7-5.79-2.01
			c-2.63-0.85-5.24-1.76-7.85-2.64c-1.03-0.35-2.06-0.7-3.1-1.05c-1.07-0.35-2.13-0.24-3.12,0.22c-1.29,0.6-2.55,1.28-3.92,1.97
			c0.24-0.83,0.47-1.68,0.73-2.52c0.16-0.51,0.38-0.99,0.55-1.5c0.22-0.69,0.5-1.26,1.32-1.42c0.18-0.04,0.43-0.55,0.36-0.77
			c-0.15-0.53-0.49-1-0.71-1.51c-0.57-1.31-1.12-2.63-1.67-3.95c-0.28-0.65,0.11-1.08,0.62-1.28c1.57-0.63,3.13-1.42,4.77-1.74
			c1.79-0.35,3.58-0.67,5.38-0.95c0.59-0.09,1.19-0.17,1.79-0.26c1.02-0.15,2.05-0.31,3.07-0.44c0.11-0.01,0.23-0.02,0.34-0.03
			c0.23-0.03,0.46-0.07,0.69-0.1c2.46-0.3,4.96-0.31,7.45-0.36c0.74-0.01,1.47-0.02,2.21-0.04c1.38-0.03,2.75-0.05,4.13-0.07
			c2.49-0.03,4.98-0.05,7.46-0.02c3.69,0.04,7.38,0.19,11.06,0.46c4.63,0.35,9.19,1.17,13.5,3.02c0.9,0.39,1.78,0.85,2.63,1.35
			c1.64,0.95,2.41,2.45,2.5,4.3c0.31,6.09,1.63,12.04,2.55,18.05c0.07,0.48,0.15,0.97,0.21,1.46c0.02,0.12,0.03,0.24,0.05,0.35
			c0.05,0.37,0.1,0.73,0.14,1.1c0.02,0.19,0.04,0.37,0.06,0.56c0.03,0.3,0.07,0.6,0.09,0.9c0.02,0.2,0.03,0.4,0.04,0.6
			c0.02,0.29,0.04,0.57,0.06,0.86c0.01,0.2,0.01,0.41,0.02,0.61c0.01,0.28,0.02,0.57,0.02,0.85c0,0.21-0.01,0.42-0.01,0.64
			c0,0.28,0,0.55-0.02,0.83c-0.01,0.21-0.03,0.43-0.05,0.64c-0.02,0.27-0.03,0.55-0.06,0.82c-0.02,0.22-0.06,0.43-0.09,0.65
			c-0.04,0.26-0.06,0.52-0.11,0.78c0,0.01,0,0.01,0,0.02c0,0.01,0,0.03-0.01,0.04c-0.14,0.79-0.43,1.56-0.95,2.17
			c-0.01,0.01-0.02,0.02-0.03,0.04c-0.01,0.01-0.02,0.03-0.03,0.04c-3.26,4.7-4.9,10.07-6.47,15.47c-0.03,0.1-0.02,0.2-0.03,0.29
			c1.13-1.11,2.26-2.21,3.39-3.31c0,0,0,0,0,0c0.08,0.04,0.08,0.04,0.16,0.08C453.86,263.8,453.72,265.52,453.59,267.25z
			 M387.88,235.23c1.29-1.09,2.5-2.23,3.85-3.19c0.61-0.43,1.47-0.61,2.23-0.7c0.96-0.12,1.95-0.03,2.92-0.03
			c0,0.07-2.32,1.11-3.4,1.68c-1.15,0.61-2.23,1.36-3.3,2.09C389.41,235.62,388.67,235.6,387.88,235.23z M403.88,258.89
			c-1,4.1-1.56,8.34-3.47,12.17c-0.59,1.18-1.42,2.25-2.14,3.37c-0.19,0.29-0.36,0.58-0.54,0.87c-0.12-0.1-0.4-0.2-0.29-0.84
			C398.37,268.77,400.85,263.73,403.88,258.89z M454.93,325.64c2.37-7.81,4.15-15.7,3.65-24.08c0.53,0.62,1.09,1.21,1.59,1.85
			c0.32,0.41,0.61,0.85,0.88,1.29l8.51,4.4c0,0,0,0,0,0c0.16,0.08,0.32,0.17,0.48,0.25l0.85,0.44l0,0.01
			c1.49,0.78,2.98,1.56,4.47,2.35C469.17,317.6,462.29,322.14,454.93,325.64z"/>
		<path d="M436.5,179.29C436.5,179.28,436.5,179.28,436.5,179.29c-3.96-0.01-7.92-0.01-11.87,0c-1.49,0-2.15,0.51-2.32,1.96
			c-0.18,1.46-0.27,2.93-0.29,4.39c-0.04,3.08-0.01,6.15-0.02,9.23c0,1.17-0.11,2.35-0.04,3.52c0.1,1.65,0.79,2.26,2.47,2.25
			c7.78-0.03,15.56-0.08,23.34-0.14c4.59-0.04,9.71-4.27,10.16-8.65c0.24-2.3,0.31-4.54-0.68-6.66c-1.77-3.76-4.91-5.67-8.95-5.86
			C444.37,179.14,440.43,179.29,436.5,179.29z"/>
		<path d="M407.69,200.61c0.91,0,1.82-0.03,2.72-0.13c1.58-0.18,2.23-0.87,2.26-2.45c0.03-1.95-0.01-3.9,0.01-5.86
			c0.04-3.45,0.14-6.9,0.14-10.35c0-1.69-0.72-2.41-2.4-2.43c-3.96-0.04-7.92-0.01-11.87-0.01c0-0.03,0-0.07,0-0.1
			c-3.69,0-7.38-0.01-11.07,0.01c-0.72,0-1.46,0.01-2.15,0.17c-3.31,0.75-6.03,2.3-7.61,5.5c-1.22,2.47-1.22,4.97-0.51,7.55
			c1.25,4.56,5.5,7.98,9.95,8C394,200.55,400.85,200.59,407.69,200.61z"/>
		<path d="M444.12,305.07c-0.09-0.02-0.17-0.03-0.26-0.05c-0.44,1.11-0.97,2.2-1.31,3.34c-0.26,0.9-0.42,1.88-0.39,2.82
			c0.04,1.09,0.78,1.67,1.7,1.61c0.96-0.06,1.55-0.67,1.38-1.84C444.97,308.97,444.5,307.02,444.12,305.07z"/>
		<path d="M436.2,316.96c-1.1,2.04-1.49,4.25-1.48,6.54c0,0.27,0.35,0.7,0.63,0.79c1.18,0.38,1.97-0.06,2.2-1.28
			c0.42-2.18-0.28-4.18-1.12-6.15C436.3,316.92,436.22,316.93,436.2,316.96z"/>
		<path d="M452.79,239.3c-0.85-0.47-1.65-0.91-2.45-1.35c0,0-0.01,0-0.01,0c-0.02-0.01-0.04-0.03-0.06-0.04
			c-0.17-0.09-0.33-0.18-0.5-0.28c0,0,0.01,0,0.01-0.01c-1.25-0.84-1.82-2.14-1.86-2.24c-0.97-1.42-2.4-1.8-3.95-2.16
			c-1.77-0.4-3.5-0.98-5.39-1.53c1.53-0.63,2.83-1.2,4.17-1.71c0.77-0.29,1.56-0.52,2.36-0.71c0.81-0.19,1.56,0.01,2.3,0.42
			c1.75,0.96,3.53,1.85,5.31,2.77c0.07-0.04,0.14-0.08,0.2-0.12c-0.21-0.69-0.36-1.41-0.65-2.07c-0.79-1.82-2.02-3.33-3.56-4.57
			c-0.25-0.2-0.66-0.23-0.99-0.32c-0.12-0.04-0.29-0.01-0.37-0.08c-1.43-1.28-3.07-1.52-4.8-1.26c-0.26,0.04-0.53,0.09-0.81,0.16
			c-3.47,0.81-6.94,1.6-10.39,2.49c-1.51,0.39-2.97,1-4.55,1.55c-1.47,0.35-2.16-0.31-3.03-0.42c-0.39-0.05-0.92-0.27-1.09-0.57
			c-1.43-2.66-1.89-5.53-1.52-8.52c0.13-1.02,0.38-2.03,0.57-3.03c-1.02-0.07-1.91,0.57-2.1,1.9c-0.25,1.66-0.39,3.34-0.4,5.01
			c-0.01,0.54,0.02,1.07,0.05,1.6c0.02,0.25,0.04,0.5,0.06,0.75c0.02,0.23,0.06,0.45,0.09,0.68c0.1,0.72,0.23,1.43,0.42,2.14
			c0,0,0,0,0,0c0.16,0.56,0.33,1.1,0.5,1.61c0.1,0.29,0.19,0.58,0.31,0.87c0,0-0.01,0-0.01,0c1.16,3.28,2.27,5.21,2.32,5.31
			c0,0,0,0,0,0c0.22,0.26,0.4,0.53,0.57,0.82c0.05,0.08,0.1,0.17,0.14,0.25c0.06,0.11,0.11,0.23,0.17,0.35
			c0.05,0.12,0.1,0.24,0.14,0.37c0.03,0.1,0.07,0.2,0.1,0.3c0.06,0.22,0.11,0.45,0.15,0.69c0.01,0.09,0.02,0.17,0.03,0.26
			c0.02,0.19,0.03,0.38,0.03,0.57c0,0.09,0,0.17,0,0.26c-0.01,0.28-0.03,0.57-0.07,0.87c0.5-0.46,0.82-0.8,1.18-1.09c0,0,0,0,0,0
			c1.12-0.92,1.94-0.87,2.93,0.18c0,0,0.01,0.01,0.01,0.01c0,0,0,0,0,0c0.41,0.43,0.81,0.88,1.22,1.31
			c0.41,0.44,0.82,0.88,1.24,1.31c0.7,0.7,1.44,1.35,2.19,2c1.59,1.38,3.53,1.85,5.56,1.87c0.15,0,0.31-0.02,0.47-0.05
			c0.07-0.02,0.14-0.04,0.22-0.07c0.09-0.03,0.17-0.05,0.26-0.08c0.07-0.03,0.14-0.06,0.21-0.09c0.09-0.04,0.17-0.07,0.25-0.12
			c0.06-0.03,0.11-0.06,0.16-0.09c0.09-0.05,0.18-0.1,0.26-0.16c0,0,0,0,0,0c0.57-0.37,0.53-0.9-0.08-1.17
			c-0.02-0.01-0.04-0.02-0.07-0.03c-0.52-0.22-1.05-0.42-1.58-0.63c-0.86-0.34-1.73-0.67-2.58-1.01c-0.58-0.23-1.13-0.53-1.67-0.89
			c1.7,0.01,3.36,0.01,5.05-0.88c-1.51-0.45-2.89-0.88-4.29-1.28c-1.26-0.36-2.41-0.9-3.24-1.94c-0.2-0.25-0.33-0.87-0.19-1.01
			c0.48-0.49,1.1-0.84,1.69-1.21c0.03-0.02,0.35,0.3,0.44,0.5c1.23,2.64,4.5,3.05,6.64,2.51c0.77-0.2,1.29-0.68,1.43-1.53
			c0.13-0.79,0.43-0.88,1.1-0.46c0.04,0.03,0.09,0.06,0.13,0.09c1.52,1.01,1.55,1.4,0.09,2.55c-0.64,0.51-1.38,0.88-2.08,1.31
			c0.65,0.2,1.75,0.11,2.75-0.53c0.8-0.51,1.43-1.28,2.18-1.97c1.02,0.52,2.13,1.07,3.24,1.65
			C450.46,239.92,451.57,239.69,452.79,239.3z"/>
	</g>
	<g>
		<g>
			<g>
				<path d="M234.51,403.42c-4.25,0-8.49,0-12.74,0v-37.23h-15.03v37.23c-4.25,0-8.56,0-12.74,0V354.7c4.18,0,8.49,0,40.51,0V403.42
					z"/>
				<path d="M251.76,403.42h-12.18v-1.81l21.92-47.53h5.36l21.99,47.53v1.81h-12.18l-12.53-28.53L251.76,403.42z"/>
				<path d="M326.3,397.29h-19.21l-2.85,6.12h-12.18v-1.81l21.92-47.53h5.36l21.99,47.53v1.81h-12.18L326.3,397.29z M316.62,373.84
					l-5.5,12.81h11.14L316.62,373.84z"/>
				<path d="M378.36,378.08c3.97,2.02,5.85,5.64,5.85,9.95c-0.07,8.49-5.22,15.38-15.17,15.38H346.2V354.7h20.81
					c8.42,0,15.17,6.54,15.17,14.96C382.18,372.58,380.72,376.13,378.36,378.08z M358.24,365.83v7.86h7.86
					c4.94,0,4.94-7.86-0.07-7.86H358.24z M358.24,384.07v8.28h9.95c5.01,0,4.94-8.28-0.07-8.28H358.24z"/>
				<path d="M395.75,403.48h-4.45V354.7c4.24,0,8.49,0,12.74,0v23.87l24.64-24.08h4.52v48.93c-4.24,0-8.56,0-12.87,0v-23.94
					L395.75,403.48z"/>
				<path d="M450.39,403.42h-12.18v-1.81l21.92-47.53h5.36l21.99,47.53v1.81H475.3l-12.53-28.53L450.39,403.42z"/>
				<path d="M504.67,369.24h8.98c23.32,0,23.32,34.1,0,34.17c-7.17,0-14.41,0-21.44,0c0-16.29,0-32.5,0-48.72c4.11,0,8.28,0,12.46,0
					V369.24z M504.67,380.45c0,3.97,0,7.86,0,11.83c2.85,0,5.98,0.07,8.91,0c7.24-0.07,6.82-11.83,0-11.83H504.67z"/>
				<path d="M578.02,403.42c-4.24,0-8.49,0-12.74,0v-19.56h-15.03v19.56c-4.24,0-8.56,0-12.74,0V354.7c4.18,0,8.49,0,12.74,0v17.68
					h15.03V354.7c4.24,0,8.49,0,12.74,0V403.42z"/>
				<path d="M593.26,386.16c-12.32-8.35-8.84-31.39,10.3-31.46c7.1,0,14.34,0,21.37,0c0,16.29,0,32.5,0,48.72
					c-4.04,0-8.28,0-12.46,0v-14.34H606l-8.35,14.34h-13.92v-1.81L593.26,386.16z M612.47,377.87c0-3.9,0-8.07,0-12.04
					c-2.92,0-5.99-0.07-8.91,0c-7.1,0.07-6.75,12.04,0,12.04H612.47z"/>
			</g>
			<g>
				<g>
					<path d="M642.34,366.83v0.29h-2.22l-1.33-2.28h-1.03v2.28c-0.66,0-1.34,0-1.98,0c0-2.58,0-5.16,0-7.76c1.12,0,2.27,0,3.4,0
						c3.05,0.01,3.6,3.68,1.64,5.01L642.34,366.83z M639.18,361.14c-0.47-0.01-0.95,0-1.42,0c0,0.63,0,1.32,0,1.94h1.42
						C640.26,363.08,640.31,361.15,639.18,361.14z"/>
				</g>
				<g>
					<path d="M638.74,371.66c-4.55,0-8.26-3.71-8.26-8.26c0-4.55,3.71-8.26,8.26-8.26c4.55,0,8.26,3.71,8.26,8.26
						C647,367.96,643.29,371.66,638.74,371.66z M638.74,356.68c-3.71,0-6.73,3.02-6.73,6.73s3.02,6.73,6.73,6.73
						c3.71,0,6.73-3.02,6.73-6.73S642.45,356.68,638.74,356.68z"/>
				</g>
			</g>
		</g>
		<g>
			<g>
				<path d="M194.23,434.57v-16.73h16.04v16.73h-3.92v-14.35l0.88,0.94H197.2l0.91-0.94v14.35H194.23z"/>
				<path d="M223.32,434.79c-1.86,0-3.48-0.37-4.87-1.11c-1.39-0.74-2.46-1.75-3.23-3.04c-0.76-1.29-1.14-2.76-1.14-4.43
					c0-1.67,0.37-3.15,1.11-4.43c0.74-1.28,1.76-2.3,3.07-3.04c1.3-0.74,2.79-1.11,4.46-1.11c1.63,0,3.08,0.36,4.35,1.08
					c1.27,0.72,2.28,1.73,3.01,3.02c0.73,1.29,1.1,2.83,1.1,4.6c0,0.15-0.01,0.33-0.02,0.55c-0.01,0.22-0.03,0.41-0.05,0.58h-13.94
					v-2.6h11.87l-1.57,0.81c0.02-0.94-0.17-1.78-0.58-2.52c-0.41-0.74-0.97-1.32-1.68-1.72s-1.55-0.61-2.51-0.61
					c-0.94,0-1.78,0.2-2.52,0.61c-0.74,0.41-1.31,0.99-1.71,1.74c-0.4,0.75-0.6,1.62-0.6,2.6v0.63c0,1,0.22,1.89,0.67,2.66
					c0.45,0.77,1.09,1.37,1.93,1.8c0.83,0.43,1.81,0.64,2.91,0.64c0.94,0,1.79-0.16,2.54-0.47c0.75-0.31,1.42-0.77,2-1.38l2.13,2.44
					c-0.77,0.88-1.73,1.55-2.87,2.01S224.79,434.79,223.32,434.79z"/>
				<path d="M240.71,429.24c-2.13,0-3.77-0.49-4.93-1.47c-1.16-0.98-1.74-2.52-1.74-4.6v-5.33h3.88v5.07c0,1.13,0.32,1.94,0.97,2.44
					c0.65,0.5,1.53,0.75,2.66,0.75c0.75,0,1.51-0.09,2.27-0.28c0.76-0.19,1.5-0.45,2.21-0.78v2.91c-0.79,0.38-1.63,0.68-2.52,0.92
					C242.62,429.12,241.69,429.24,240.71,429.24z M245.75,434.57v-16.73h3.92v16.73H245.75z"/>
				<path d="M262.73,434.79c-1.86,0-3.48-0.37-4.87-1.11c-1.39-0.74-2.46-1.75-3.23-3.04c-0.76-1.29-1.14-2.76-1.14-4.43
					c0-1.67,0.37-3.15,1.11-4.43c0.74-1.28,1.76-2.3,3.07-3.04c1.3-0.74,2.79-1.11,4.46-1.11c1.63,0,3.08,0.36,4.35,1.08
					s2.28,1.73,3.01,3.02c0.73,1.29,1.1,2.83,1.1,4.6c0,0.15-0.01,0.33-0.02,0.55c-0.01,0.22-0.03,0.41-0.05,0.58h-13.94v-2.6h11.87
					l-1.57,0.81c0.02-0.94-0.17-1.78-0.58-2.52c-0.41-0.74-0.97-1.32-1.68-1.72s-1.55-0.61-2.51-0.61c-0.94,0-1.78,0.2-2.52,0.61
					c-0.74,0.41-1.31,0.99-1.71,1.74c-0.4,0.75-0.6,1.62-0.6,2.6v0.63c0,1,0.22,1.89,0.67,2.66c0.45,0.77,1.09,1.37,1.93,1.8
					c0.83,0.43,1.81,0.64,2.91,0.64c0.94,0,1.79-0.16,2.54-0.47c0.75-0.31,1.42-0.77,2.01-1.38l2.13,2.44
					c-0.77,0.88-1.73,1.55-2.87,2.01S264.19,434.79,262.73,434.79z"/>
				<path d="M274.91,434.57v-16.73h4.04l6.77,11.87h-1.63l7.08-11.87h3.66l0.03,16.73h-3.57v-12.5l0.66,0.38l-6.26,10.37H284
					l-6.3-10.65l0.72-0.19v12.59H274.91z"/>
				<path d="M334.65,434.57v-16.73h16.04v16.73h-3.92v-14.35l0.88,0.94h-10.02l0.91-0.94v14.35H334.65z"/>
				<path d="M355.66,434.88c-0.31,0-0.65-0.03-1.02-0.09c-0.37-0.06-0.75-0.15-1.14-0.25l0.19-3.26c0.14,0.02,0.28,0.04,0.41,0.06
					c0.12,0.02,0.24,0.03,0.34,0.03c0.65,0,1.15-0.2,1.52-0.61c0.37-0.41,0.64-0.94,0.81-1.61c0.18-0.67,0.3-1.43,0.36-2.29
					c0.06-0.86,0.12-1.71,0.16-2.57l0.25-6.45h13.56v16.73h-3.91V420.1l0.91,1.07h-7.96l0.85-1.1l-0.22,4.45
					c-0.06,1.46-0.18,2.83-0.35,4.1c-0.17,1.27-0.43,2.37-0.8,3.29c-0.36,0.92-0.87,1.64-1.52,2.18
					C357.46,434.61,356.65,434.88,355.66,434.88z"/>
				<path d="M381.29,434.79c-1.25,0-2.35-0.22-3.29-0.64c-0.94-0.43-1.66-1.02-2.18-1.78c-0.51-0.76-0.77-1.62-0.77-2.58
					c0-0.94,0.22-1.79,0.67-2.54s1.19-1.35,2.21-1.79c1.02-0.44,2.38-0.66,4.07-0.66h4.86v2.6h-4.57c-1.32,0-2.21,0.21-2.68,0.64
					s-0.71,0.97-0.71,1.61c0,0.69,0.28,1.24,0.85,1.66c0.56,0.42,1.35,0.63,2.35,0.63c0.96,0,1.82-0.22,2.58-0.66
					c0.76-0.44,1.32-1.09,1.68-1.94l0.63,2.35c-0.38,0.98-1.04,1.74-2,2.29C384.02,434.52,382.79,434.79,381.29,434.79z
					 M386.55,434.57v-3.41l-0.19-0.69v-5.92c0-1.15-0.35-2.04-1.05-2.68c-0.7-0.64-1.76-0.96-3.18-0.96c-0.92,0-1.83,0.15-2.72,0.44
					c-0.9,0.29-1.67,0.7-2.32,1.22l-1.53-2.85c0.92-0.69,1.99-1.21,3.23-1.57c1.23-0.35,2.52-0.53,3.85-0.53
					c2.44,0,4.32,0.58,5.64,1.75c1.32,1.17,1.97,2.97,1.97,5.39v9.8H386.55z"/>
				<path d="M395.13,434.57v-16.73h8.14c2.03,0,3.62,0.37,4.78,1.11c1.16,0.74,1.74,1.81,1.74,3.21c0,1.36-0.54,2.42-1.63,3.18
					c-1.09,0.76-2.53,1.14-4.32,1.14l0.5-1c2.01,0,3.5,0.38,4.5,1.13c0.99,0.75,1.49,1.85,1.49,3.29c0,1.46-0.55,2.61-1.66,3.43
					c-1.11,0.83-2.79,1.24-5.04,1.24H395.13z M398.83,424.83h4.07c1,0,1.76-0.18,2.29-0.55c0.52-0.36,0.78-0.88,0.78-1.55
					s-0.26-1.17-0.78-1.5c-0.52-0.33-1.28-0.5-2.29-0.5h-4.07V424.83z M398.83,431.69h4.48c1.04,0,1.84-0.16,2.38-0.49
					c0.54-0.32,0.81-0.86,0.81-1.61c0-0.75-0.25-1.3-0.74-1.65c-0.49-0.34-1.28-0.52-2.36-0.52h-4.57V431.69z"/>
				<path d="M414.55,434.57v-16.73h3.88v11.06l9.21-11.06h3.57v16.73h-3.88v-11.06l-9.18,11.06H414.55z"/>
				<path d="M436.54,434.57v-16.73h4.04l6.77,11.87h-1.63l7.08-11.87h3.66l0.03,16.73h-3.57v-12.5l0.66,0.38l-6.27,10.37h-1.69
					l-6.3-10.65l0.72-0.19v12.59H436.54z"/>
				<path d="M496.27,434.57v-16.73h3.88v16.73H496.27z M499,427.83v-3.23h5.7v3.23H499z M505.76,426.64l-3.66-0.44l6.14-8.36h4.17
					L505.76,426.64z M508.24,434.57l-6.05-8.02l3.2-1.97l7.46,9.99H508.24z"/>
				<path d="M522.43,434.79c-1.69,0-3.21-0.37-4.56-1.11c-1.35-0.74-2.41-1.76-3.18-3.05c-0.77-1.29-1.16-2.77-1.16-4.42
					c0-1.69,0.39-3.17,1.16-4.45c0.77-1.27,1.83-2.28,3.16-3.02c1.34-0.74,2.86-1.11,4.57-1.11c1.73,0,3.27,0.37,4.62,1.11
					c1.35,0.74,2.4,1.75,3.16,3.02c0.76,1.27,1.14,2.76,1.14,4.45c0,1.67-0.38,3.15-1.14,4.43c-0.76,1.28-1.82,2.3-3.18,3.04
					C525.67,434.42,524.14,434.79,522.43,434.79z M522.43,431.47c0.96,0,1.82-0.21,2.57-0.64c0.75-0.43,1.34-1.04,1.77-1.85
					c0.43-0.8,0.64-1.73,0.64-2.77c0-1.07-0.21-1.99-0.64-2.77c-0.43-0.78-1.02-1.39-1.77-1.82c-0.75-0.43-1.6-0.64-2.54-0.64
					s-1.79,0.22-2.54,0.64c-0.75,0.43-1.35,1.03-1.79,1.82c-0.44,0.78-0.66,1.71-0.66,2.77c0,1.04,0.22,1.97,0.66,2.77
					c0.44,0.8,1.03,1.42,1.79,1.85C520.67,431.25,521.51,431.47,522.43,431.47z"/>
				<path d="M535.27,440.64v-22.8H539v3.95l-0.16,4.45l0.31,4.45v9.96H535.27z M544.51,434.79c-1.38,0-2.62-0.31-3.73-0.93
					c-1.11-0.62-1.98-1.56-2.63-2.83c-0.65-1.27-0.97-2.88-0.97-4.82c0-1.96,0.31-3.58,0.93-4.84c0.62-1.26,1.49-2.2,2.62-2.82
					c1.13-0.62,2.39-0.92,3.79-0.92c1.63,0,3.08,0.35,4.35,1.06c1.27,0.71,2.28,1.71,3.02,3.01c0.74,1.29,1.11,2.8,1.11,4.51
					c0,1.73-0.37,3.24-1.11,4.53c-0.74,1.28-1.75,2.28-3.02,2.99C547.59,434.43,546.14,434.79,544.51,434.79z M544.04,431.47
					c0.96,0,1.81-0.22,2.55-0.66c0.74-0.44,1.33-1.05,1.77-1.85c0.44-0.79,0.66-1.71,0.66-2.76c0-1.07-0.22-1.99-0.66-2.77
					c-0.44-0.78-1.03-1.39-1.77-1.82c-0.74-0.43-1.59-0.64-2.55-0.64c-0.92,0-1.75,0.22-2.51,0.64c-0.75,0.43-1.35,1.03-1.78,1.82
					c-0.44,0.78-0.66,1.71-0.66,2.77c0,1.04,0.22,1.96,0.66,2.76c0.44,0.79,1.03,1.41,1.78,1.85
					C542.29,431.25,543.12,431.47,544.04,431.47z"/>
				<path d="M556.91,434.57v-16.73h4.04l6.77,11.87h-1.63l7.08-11.87h3.66l0.03,16.73h-3.57v-12.5l0.66,0.38l-6.27,10.37H566
					l-6.3-10.65l0.72-0.19v12.59H556.91z"/>
				<path d="M582.19,434.57v-16.73h3.88v11.06l9.21-11.06h3.57v16.73h-3.88v-11.06l-9.18,11.06H582.19z"/>
				<path d="M604.18,434.57v-16.73h4.04l6.77,11.87h-1.63l7.08-11.87h3.66l0.03,16.73h-3.57v-12.5l0.66,0.38l-6.27,10.37h-1.69
					l-6.3-10.65l0.72-0.19v12.59H604.18z"/>
			</g>
			<g>
				<circle class="st0" cx="476.48" cy="425.34" r="3.81"/>
			</g>
			<g>
				<circle class="st0" cx="315.07" cy="425.34" r="3.81"/>
			</g>
		</g>
	</g>
</g>
</svg>
